<svg width="370" height="203" viewBox="0 0 370 203" fill="none" xmlns="http://www.w3.org/2000/svg">
<path d="M168.277 30.6057C167.512 45.4381 167.735 60.9162 165.262 75.6239C164.035 82.9189 161.673 90.1153 159.661 97.2176C159.364 98.2671 158.703 103.485 157.13 104.272" stroke="white" stroke-width="1.25" stroke-linecap="round"/>
<path d="M175.548 34.9673C178.13 52.5199 178.949 70.2931 179.641 88.0091C180.144 100.879 180.184 113.376 177.702 126.027C177.56 126.751 174.363 139.54 173.61 135.774" stroke="white" stroke-width="1.25" stroke-linecap="round"/>
<path d="M187.664 39.8135C187.019 58.1107 185.786 76.3278 189.388 94.4169C191.542 105.238 194.292 116.141 197.6 126.673C198.21 128.617 198.799 130.529 200.104 132.112C201.307 133.571 202.999 134.435 204.627 133.35" stroke="white" stroke-width="1.25" stroke-linecap="round"/>
<path d="M204.142 40.7827C206.939 66.5309 210.58 92.0223 214.481 117.626C216.396 130.196 218.748 142.885 219.624 155.59C219.74 157.281 220.574 162.282 220.108 160.652C219.695 159.206 218.932 157.899 218.197 156.613" stroke="white" stroke-width="1.25" stroke-linecap="round"/>
<path d="M195.903 46.5994C194.137 57.9312 190.646 69.332 190.787 80.8746C190.868 87.5029 192.227 93.4626 193.56 99.9374C194.83 106.101 195.95 112.912 198.218 118.865C198.682 120.084 199.892 122.614 201.234 121.72" stroke="white" stroke-width="1.25" stroke-linecap="round"/>
<path d="M164.4 38.3596C158.165 55.5577 154.515 73.3332 146.576 89.9206C144.833 93.5606 141.137 98.4529 141.137 102.818" stroke="white" stroke-width="1.25" stroke-linecap="round"/>
<path d="M168.763 41.2673C171.908 51.8802 172.749 64.09 172.856 75.1118C172.926 82.3952 168.956 89.806 165.182 95.8439C163.292 98.8685 158.696 97.9709 155.678 97.9709" stroke="white" stroke-width="1.25" stroke-linecap="round"/>
<path d="M167.793 38.3596C166.308 47.6217 164.446 56.8413 162.489 66.0114C160.295 76.2931 158.579 88.4776 153.738 98.0788C151.078 103.355 146.36 108.282 142.484 112.618C140.408 114.94 136.693 119.886 133.383 121.234C130.639 122.352 129.05 118.669 128.537 116.872" stroke="white" stroke-width="1.25" stroke-linecap="round"/>
<path d="M165.369 40.7827C156.445 55.0304 147.697 69.3801 138.013 83.1354C135.521 86.6762 131.632 93.2007 127.567 95.9247C126.989 96.3114 125.86 96.3715 125.197 96.2208C122.552 95.6196 122.305 93.2642 121.266 91.1859" stroke="white" stroke-width="1.25" stroke-linecap="round"/>
<path d="M155.192 39.3289C149.761 54.0053 145.69 69.4675 143.076 84.8856C141.665 93.208 140.836 101.032 141.407 109.387C141.45 110.01 142.101 114.068 142.969 115.311C144.856 118.013 154.083 114.206 156.054 113.399C166.69 109.042 176.941 103.575 187.179 98.4557" stroke="white" stroke-width="1.25" stroke-linecap="round"/>
<path d="M177.485 44.6609C176.534 49.7598 176.075 54.9822 175.654 60.1426C175.176 66.012 173.227 75.3677 176.435 80.9824C179.398 86.1665 184.632 91.9548 190.894 92.6139C200.285 93.6024 209.018 92.6344 218.196 90.7023" stroke="white" stroke-width="1.25" stroke-linecap="round"/>
<path d="M203.172 34.9673C205.967 44.14 208.79 53.2194 210.603 62.6729C213.113 75.7557 215.543 90.2392 210.388 103.087C208.36 108.141 203.223 111.492 198.003 112.214C189.708 113.363 178.894 111.717 171.186 108.633" stroke="white" stroke-width="1.25" stroke-linecap="round"/>
<path d="M194.932 37.3904C192.664 42.6822 194.515 49.1373 196.009 54.2722C198.03 61.2186 200.202 67.024 205.756 71.7464C210.965 76.1762 219.599 78.6451 224.495 72.7695" stroke="white" stroke-width="1.25" stroke-linecap="round"/>
<path d="M192.509 22.8518C195.315 28.6404 196.811 34.6949 201.125 39.7067C201.869 40.5721 202.604 41.4024 203.656 41.753" stroke="white" stroke-width="1.25" stroke-linecap="round"/>
<path d="M189.602 24.3057C190.073 33.7176 184.3 42.2171 178.886 49.2919C176.849 51.9542 174.517 54.9455 171.186 56.0769C167.307 57.3941 166.615 56.013 165.37 52.8998" stroke="white" stroke-width="1.25" stroke-linecap="round"/>
<path d="M179.908 23.3364C178.105 35.0573 176.109 47.8858 171.346 58.7964C168.668 64.9308 164.045 70.2087 159.876 75.3551C158.301 77.2996 156.647 79.4103 154.68 81.0093C152.513 82.7696 150.604 84.2158 147.921 84.8865" stroke="white" stroke-width="1.25" stroke-linecap="round"/>
<path d="M170.216 23.3364C169.029 30.6251 167.737 38.4066 164.885 45.2532C162.376 51.2733 158.99 57.12 155.811 62.7812C152.728 68.2724 149.624 74.1439 145.553 79.0169C144.182 80.6565 139.645 86.0789 137.26 84.8865" stroke="white" stroke-width="1.25" stroke-linecap="round"/>
<path d="M162.946 27.2134C164.038 38.1264 158.503 49.7796 154.869 59.8462C151.276 69.8011 146.992 79.4944 143.022 89.3019C141.335 93.4702 139.743 99.4227 135.322 101.633C133.264 102.662 130.762 102.334 128.537 102.334" stroke="white" stroke-width="1.25" stroke-linecap="round"/>
<path d="M192.025 27.698C192.961 46.7308 192.646 66.9465 202.849 83.8631C204.239 86.1666 206.862 83.2837 208.503 82.463" stroke="white" stroke-width="1.25" stroke-linecap="round"/>
<path d="M205.595 25.2749C205.289 34.3456 204.798 43.446 205.218 52.5228C205.561 59.9464 208.182 65.5818 212.057 72.0163C218.37 82.5022 225.781 93.1626 234.7 101.634C237.769 104.548 241.144 106.06 245.201 106.857C250.986 107.993 253.313 104.141 255.513 99.4258" stroke="white" stroke-width="1.25" stroke-linecap="round"/>
<path d="M210.927 23.3364C211.116 32.5121 211.161 41.7145 211.681 50.8805C212.153 59.2192 216.021 66.106 220.243 73.2011C222.477 76.9557 226.05 84.1692 230.313 86.6097C232.344 87.7726 236.175 86.8134 238.282 86.4481C246.131 85.0877 251.971 80.6755 257.453 75.1936" stroke="white" stroke-width="1.25" stroke-linecap="round"/>
<path d="M200.748 21.8813C201.849 35.317 203.539 48.7305 203.979 62.2147C204.3 72.0845 203.454 80.143 198.809 88.8164C192.797 100.042 184.229 110.235 176.085 119.941C172.893 123.745 170.308 127.162 165.638 128.719C159.863 130.644 155.084 127.789 150.829 124.142" stroke="white" stroke-width="1.25" stroke-linecap="round"/>
<path d="M191.54 44.6609C175.344 79.6231 153.15 113.146 122.181 136.717C118.345 139.637 113.908 142.351 108.908 142.048C106.719 141.915 106.424 140.896 105.65 139.059C104.233 135.701 102.857 132.329 101.396 128.989" stroke="white" stroke-width="1.25" stroke-linecap="round"/>
<path d="M173.124 33.0288C161.556 47.6471 149.194 61.7007 136.991 75.7854C134.76 78.3598 124.468 90.2275 120.674 93.9865C113.465 101.129 104.845 107.077 96.5495 112.834C91.2625 116.503 85.6801 120.286 80.0177 123.442C77.9119 124.616 77.2418 125.066 75.2251 125.246C72.4838 125.491 69.5525 124.538 67.2015 123.173C63.2185 120.86 59.804 116.626 56.8085 113.211C54.1356 110.164 51.4806 107.022 49.0542 103.787" stroke="white" stroke-width="1.25" stroke-linecap="round"/>
<path d="M175.547 43.2058C174.734 73.8473 170.967 105.487 187.259 133.135C189.893 137.605 196.038 136.642 200.372 136.15C206.35 135.472 213.622 133.088 218.869 130.173C221.89 128.494 224.195 126.582 225.95 123.657" stroke="white" stroke-width="1.25" stroke-linecap="round"/>
<path d="M196.872 32.5442C197.784 49.7312 198.506 67.2799 202.23 84.1321C204.69 95.2682 210.859 104.5 218.25 112.995C223.403 118.919 231.31 127.195 237.097 132.543C241.205 136.339 245.694 140.556 251.287 141.94C256.24 143.165 261.633 143.265 266.688 142.72C281.757 141.095 299.528 132.824 300.586 115.903" stroke="white" stroke-width="1.25" stroke-linecap="round"/>
<path d="M211.895 36.4211C211.895 47.1724 211.488 58.132 212.541 68.8386C213.828 81.922 221.085 93.0455 230.689 101.821C236.255 106.908 246.526 107.145 253.602 107.88C262.289 108.781 270.987 109.631 279.53 111.541C282.764 112.264 285.73 113.804 288.954 114.449" stroke="white" stroke-width="1.25" stroke-linecap="round"/>
<path d="M214.319 62.1072C210.74 71.4039 212.623 66.4599 207.481 80.2545C200.413 99.2148 194.318 119.066 185.295 137.227C181.179 145.512 178.667 148.38 172.64 154.971C168.78 159.192 163.976 164.858 158.639 167.545C154.751 169.501 147.3 168.486 143.184 167.76C134.802 166.281 125.416 164.915 119.813 158.067" stroke="white" stroke-width="1.25" stroke-linecap="round"/>
<path d="M183.302 65.0149C184.734 80.6254 186.079 96.4976 189.253 111.864C191.867 124.525 202.192 135.701 210.012 145.466C214.613 151.212 218.773 155.32 224.955 159.117C230.849 162.737 236.983 166.155 243.345 168.891C250.599 172.01 260.971 177.353 268.115 171.637" stroke="white" stroke-width="1.25" stroke-linecap="round"/>
<path d="M184.27 77.1316C183.131 85.3696 183.425 84.1999 181.039 94.6865C177.433 110.536 174.292 127.544 167.765 142.532C164.231 150.647 155.871 160.189 147.545 163.883C142.464 166.137 136.224 165.803 130.851 165.445C124.44 165.017 118.177 164.056 111.95 162.429C106.455 160.994 101.42 159.936 97.5186 155.644" stroke="white" stroke-width="1.25" stroke-linecap="round"/>
<path d="M178.454 46.5994C175.524 55.8795 173.43 65.4527 171.023 74.8704C168.194 85.9403 165.934 98.2964 161.223 108.849C158.622 114.675 153.901 120.098 150.022 125.031C145.936 130.228 141.779 135.865 136.586 140.055C130.241 145.176 123.176 150.775 115.074 152.629C104.201 155.117 91.6734 149.067 81.983 144.956C72.0394 140.737 60.6989 136.272 52.9312 128.505" stroke="white" stroke-width="1.25" stroke-linecap="round"/>
<path d="M167.309 48.5378C159.571 64.0125 152.276 80.0404 142.672 94.4715C138.316 101.018 132.372 105.288 125.952 109.711C116.954 115.91 107.56 122.101 97.6004 126.674C82.4092 133.648 63.9959 123.523 52.0167 114.665C39.678 105.541 27.603 95.4639 17.4992 83.8632C15.6774 81.7715 12.7065 79.2153 12.7065 76.1627" stroke="white" stroke-width="1.25" stroke-linecap="round"/>
<path d="M182.816 41.752C186.631 61.9014 192.525 82.1049 199.348 101.417C201.375 107.155 205.945 119.474 210.71 124.95C219.223 134.729 235.185 140.386 246.628 144.874C262.811 151.221 278.593 155.79 295.954 156.021C307.463 156.174 319.148 155.367 330.499 153.436C341.037 151.643 352.25 147.82 360.735 141.104C368.394 135.043 369.68 125.993 368.436 116.872" stroke="white" stroke-width="1.25" stroke-linecap="round"/>
<path d="M215.773 50.9609C217.094 63.5135 218.805 76.156 221.481 88.4941C222.319 92.3555 224.456 101.255 226.92 105.295C231.949 113.542 242.549 120.097 250.183 125.246C261.348 132.777 271.935 139.476 285.616 139.436C294.139 139.41 302.503 137.809 310.791 135.962C324.997 132.798 339.275 128.234 351.905 120.858C356.287 118.298 361.951 115.622 364.559 111.057" stroke="white" stroke-width="1.25" stroke-linecap="round"/>
<path d="M183.923 20.6094C179.284 31.4849 175.289 41.039 167.995 50.2083C164.03 55.1933 159.779 59.3436 155.019 63.5755" stroke="white" stroke-width="1.25" stroke-linecap="round"/>
<path d="M173.768 19.0469C169.222 32.6855 165.148 45.7279 162.05 59.6694" stroke="white" stroke-width="1.25" stroke-linecap="round"/>
<path d="M186.266 18.2656C186.266 50.2456 191.145 81.3636 194.859 113.138C195.352 117.353 195.852 121.559 196.378 125.768C196.49 126.657 196.422 123.383 196.422 122.947" stroke="white" stroke-width="1.25" stroke-linecap="round"/>
<path d="M190.173 40.1394C187.574 57.4714 181.251 74.8258 175.417 91.2647C168.685 110.237 158.35 124.492 146.296 140.437C142.281 145.747 136.465 155.837 130.498 159.967C129.625 160.572 129.594 160.372 129.24 159.663" stroke="white" stroke-width="1.25" stroke-linecap="round"/>
<path d="M172.987 87.012C169.925 100.641 165.194 113.883 160.531 127.027C156.634 138.011 151.831 151.49 146.687 162.311C144.109 167.734 143.325 169.236 139.178 172.597C132.617 177.915 121.281 185.991 112.704 181.451C99.9687 174.708 93.3739 163.37 88.6172 150.289" stroke="white" stroke-width="1.25" stroke-linecap="round"/>
<path d="M175.329 72.1682C176.783 90.5512 177.561 108.996 178.323 127.417C178.844 140.006 179.841 162.351 179.582 176.242C179.481 181.682 180.051 184.32 177.021 188.133C172.17 194.24 163.225 198.919 155.365 197.508C148.343 196.247 140.576 193.866 137.831 187.005" stroke="white" stroke-width="1.25" stroke-linecap="round"/>
<path d="M198.767 61.2319C194.141 74.4931 191.421 88.6836 188.872 102.462C186.877 113.243 186.24 118.166 192.43 127.113C198.771 136.278 206.332 146.826 216.474 152.112C222.171 155.081 229.19 156.776 235.396 158.361C248.534 161.717 262.515 164.351 276.106 164.351" stroke="white" stroke-width="1.25" stroke-linecap="round"/>
<path d="M198.765 15.1406C198.252 22.0603 196.495 29.386 197.376 36.3199C197.938 40.7469 198.748 45.1272 199.546 49.5135" stroke="white" stroke-width="1.25" stroke-linecap="round"/>
<path d="M170.541 1.94727C170.416 3.77501 170.083 5.58232 169.831 7.39482" stroke="white" stroke-width="1.25" stroke-linecap="round"/>
<path d="M173.62 1.71045C173.847 3.45698 174.252 5.18763 174.567 6.92115" stroke="white" stroke-width="1.25" stroke-linecap="round"/>
<path d="M176.935 1C177.102 1.92032 178.038 6.44755 179.067 6.44755" stroke="white" stroke-width="1.25" stroke-linecap="round"/>
<path d="M181.674 1C182.539 2.6093 183.291 4.80401 184.753 5.97385" stroke="white" stroke-width="1.25" stroke-linecap="round"/>
<path d="M187.594 2.18408C188.043 3.65724 188.604 5.16833 189.41 6.48686C189.686 6.93784 189.726 6.76853 189.726 6.44738" stroke="white" stroke-width="1.25" stroke-linecap="round"/>
<path d="M189.726 1.23682C191.097 3.12213 192.222 5.21803 193.515 7.15807" stroke="white" stroke-width="1.25" stroke-linecap="round"/>
<path d="M195.646 4.55225C196.191 4.99249 198.743 8.77917 199.199 7.86815" stroke="white" stroke-width="1.25" stroke-linecap="round"/>
<path d="M202.99 3.8418C203.277 4.54463 204.937 8.14528 205.595 7.1577" stroke="white" stroke-width="1.25" stroke-linecap="round"/>
<path d="M209.621 2.89453C210.177 3.75396 210.343 4.76218 210.568 5.73673" stroke="white" stroke-width="1.25" stroke-linecap="round"/>
<path d="M209.384 3.36816C208.928 4.14627 207.422 7.21439 206.542 6.92091" stroke="white" stroke-width="1.25" stroke-linecap="round"/>
<path d="M204.411 2.18408C203.07 4.01915 200.888 5.97368 198.49 5.97368" stroke="white" stroke-width="1.25" stroke-linecap="round"/>
<path d="M197.068 3.8418C196.233 4.95409 193.033 8.80786 191.383 7.1577" stroke="white" stroke-width="1.25" stroke-linecap="round"/>
<path d="M188.069 3.8418C186.764 4.91992 182.994 8.52282 181.437 6.44715" stroke="white" stroke-width="1.25" stroke-linecap="round"/>
<path d="M177.883 3.60498C176.528 4.33495 172.114 6.54867 170.541 5.49978" stroke="white" stroke-width="1.25" stroke-linecap="round"/>
<path d="M169.594 4.31543C169.264 5.50368 168.535 6.56731 167.936 7.63133" stroke="white" stroke-width="1.25" stroke-linecap="round"/>
<path d="M192.245 23.2119C188.415 35.9785 184.539 50.0915 177.717 61.5972C172.8 69.889 165.175 76.5271 157.879 82.6519C155.26 84.8502 152.033 87.7226 148.513 88.5148C145.966 89.0877 141.434 89.7813 139.147 88.2567" stroke="white" stroke-width="1.25" stroke-linecap="round"/>
<path d="M180.961 37.814C181.987 44.583 183.171 51.3354 184.464 58.0575C186.18 66.9786 187.007 79.4793 193.645 86.5607C198.961 92.2307 208.543 101.66 217.097 100.72C226.05 99.7362 234.227 96.2215 243.351 96.2215" stroke="white" stroke-width="1.25" stroke-linecap="round"/>
<path d="M172.333 37.814C174.894 50.4997 176.282 64.7417 182.178 76.4942C186.69 85.4876 193.765 94.1503 199.988 101.826C206.659 110.055 213.29 117.959 220.969 125.241C228.996 132.853 240.55 138.333 251.611 139.732C259.498 140.73 268.837 141.493 271.228 132.726" stroke="white" stroke-width="1.25" stroke-linecap="round"/>
<path d="M206.185 66.354C196.675 85.8061 188.447 107.316 175.801 124.983C172.041 130.235 166.617 134.423 161.605 138.368C158.543 140.778 154.766 144.14 151.096 145.853C148.502 147.064 147.52 144.713 147.113 142.682" stroke="white" stroke-width="1.25" stroke-linecap="round"/>
<path d="M175.651 65.6899C166.331 76.859 156.963 87.9935 147.922 99.3923C142.287 106.498 135.805 113.852 132.141 122.291C128.011 131.801 125.316 142.295 123.733 152.527C123.196 155.999 122.495 161.545 124.028 164.953C124.222 165.383 125.635 161.234 125.872 160.602" stroke="white" stroke-width="1.25" stroke-linecap="round"/>
<path d="M164.368 102.195C162.781 111.241 160.884 120.288 158.616 129.186C156.266 138.402 153.284 142.985 146.153 149.135C140.688 153.847 137.22 156.526 130.223 154.482C120.604 151.672 116.209 146.427 114.589 136.709" stroke="white" stroke-width="1.25" stroke-linecap="round"/>
<path d="M182.29 76.9729C177.44 90.7339 172.625 104.507 167.578 118.197C162.707 131.41 155 142.571 146.707 153.928C140.153 162.904 131.426 180.215 117.688 179.407C106.595 178.755 96.8647 171.416 89.3691 163.92" stroke="white" stroke-width="1.25" stroke-linecap="round"/>
<path d="M190.918 106.841C183.373 119.215 175.794 131.868 167.245 143.567C156.407 158.399 140.393 167.364 122.628 171.701C116.822 173.119 111.017 171.738 105.335 170.411C95.7792 168.179 86.158 165.361 77.3477 160.971C58.353 151.507 35.8155 133.333 30.9609 111.487" stroke="white" stroke-width="1.25" stroke-linecap="round"/>
<path d="M176.979 77.637C183.961 91.9044 190.813 106.243 197.997 120.41C199.212 122.806 204.602 133.574 207.215 136.929C209.962 140.455 217.82 147.026 220.49 149.171C232.627 158.925 245.781 169.551 260.239 175.72C267.02 178.614 274.582 180.274 281.773 181.804C289.163 183.377 296.543 184.319 303.971 185.529C305.383 185.758 308.917 187.437 309.723 185.824" stroke="white" stroke-width="1.25" stroke-linecap="round"/>
<path d="M213.484 110.823C205.457 122.335 198.156 134.575 191.433 146.885C187.219 154.603 184.293 161.578 190.511 169.009C194.084 173.279 202.571 174.726 207.658 175.057C221.538 175.958 240.707 175.109 250.652 163.921" stroke="white" stroke-width="1.25" stroke-linecap="round"/>
<path d="M202.865 93.5659C206.46 101.186 211.854 108.373 216.951 115.026C223.523 123.606 229.156 125.99 239.591 128.891C262.158 135.163 283.941 139.284 307.291 139.363C320.51 139.408 333.745 138.035 346.893 138.035" stroke="white" stroke-width="1.25" stroke-linecap="round"/>
<path d="M217.466 67.0168C213.574 71.687 211.12 77.5979 208.69 83.0937C207.147 86.5834 201.53 96.6147 203.011 101.383C203.889 104.208 210.469 107.572 212.451 108.721C216.876 111.286 221.379 113.355 226.463 114.141C242.008 116.545 258.856 114.805 274.546 114.805" stroke="white" stroke-width="1.25" stroke-linecap="round"/>
<path d="M211.493 54.407C211.774 58.239 211.478 63.0369 213.116 66.649C215.445 71.7859 220.845 76.8849 224.251 80.9559C237.745 97.083 251.263 114.756 268.868 126.753C275.456 131.242 283.032 135.381 291.14 135.381" stroke="white" stroke-width="1.25" stroke-linecap="round"/>
<path d="M203.53 59.053C187.486 76.1523 171.705 93.5166 155.336 110.307C147.409 118.439 138.832 126.435 129.488 132.947C119.071 140.208 106.724 145.839 94.753 149.983C92.9785 150.597 91.774 150.647 90.0332 150.647" stroke="white" stroke-width="1.25" stroke-linecap="round"/>
<path d="M157.732 99.54C147.626 110.531 136.775 120.907 125.947 131.177C120.233 136.597 115.796 141.649 108.1 143.493C101.913 144.976 95.0295 146.583 89.2212 143.346C82.1286 139.392 76.4776 133.308 69.457 129.408" stroke="white" stroke-width="1.25" stroke-linecap="round"/>
<path d="M161.05 92.9019C154.16 97.6915 146.795 101.789 139.479 105.881C129.391 111.524 119.231 117.559 108.026 120.704C86.3997 126.775 62.6408 127.212 40.3634 127.526C36.2376 127.584 22.8703 127.702 21.0049 122.106" stroke="white" stroke-width="1.25" stroke-linecap="round"/>
<path d="M148.44 98.2123C121.591 99.6254 95.704 100.792 69.457 94.23" stroke="white" stroke-width="1.25" stroke-linecap="round"/>
<path d="M181.427 31.7593C177.174 42.2911 170.964 52.4466 165.071 62.0476C155.571 77.5259 146.862 91.5674 129.463 98.8496C116.279 104.368 100.413 107.573 86.22 109.163C81.6795 109.671 79.318 109.245 75.2554 108.62" stroke="white" stroke-width="1.25" stroke-linecap="round"/>
<path d="M190.546 46.741C180.606 63.6574 167.799 79.5464 155.373 94.6523C152.031 98.715 142.545 109.973 136.99 113.976C132.792 117.001 120.785 121.557 117.16 122.878C91.196 132.342 64.1477 142.439 36.246 137.642C25.7576 135.839 15.7074 132.745 7.94787 125.049C2.87665 120.02 1.75321 113.445 1 106.666" stroke="white" stroke-width="1.25" stroke-linecap="round"/>
<path d="M180.776 38.2729C176.428 48.984 171.682 59.5663 166.735 70.0088C159.885 84.4709 152.899 101.377 142.128 113.614C130.701 126.596 113.47 136.53 99.2106 145.639C87.9941 152.804 76.2506 160.079 64.218 165.94C58.7199 168.618 57.1532 169.395 51.8783 169.559C43.7035 169.812 31.9853 169.1 25.2086 163.95C20.9305 160.698 18.7357 156.418 16.6323 151.61" stroke="white" stroke-width="1.25" stroke-linecap="round"/>
<path d="M171.007 84.5193C169.621 92.5081 168.558 100.551 167.461 108.584C166.688 114.242 165.534 122.738 164.819 128.812C164.561 131.008 164.126 131.745 164.928 133.516C169.76 144.189 180.53 152.602 189.209 160.041C191.928 162.372 204.771 177.226 208.135 170.499" stroke="white" stroke-width="1.25" stroke-linecap="round"/>
<path d="M186.639 66.2808C183.705 75.7925 181.834 85.6891 179.981 95.4473C178.558 102.935 176.413 113.98 176 122.081C175.791 126.179 175.653 126.967 178.352 129.354C186.615 136.664 197.162 139.935 207.917 139.885C221.95 139.819 235.805 137.279 249.821 137.279" stroke="white" stroke-width="1.25" stroke-linecap="round"/>
<path d="M186.64 38.9236C196.754 58.5898 203.007 81.3874 216.783 98.9213C230.965 116.971 247.114 133.838 263.645 149.728C273.414 159.118 283.16 168.016 296.069 172.525C310.085 177.422 327.372 179.101 339.71 169.847" stroke="white" stroke-width="1.25" stroke-linecap="round"/>
<path d="M215.299 55.8596C221.425 65.5118 227.332 75.4027 234.551 84.3024C245.759 98.1212 262.918 107.745 277.649 117.088C289.352 124.509 302.595 133.917 316.188 138.004C320.81 139.393 326.993 138.649 331.676 138.148C338.138 137.458 353.481 135.048 355.994 127.509" stroke="white" stroke-width="1.25" stroke-linecap="round"/>
<path d="M212.042 41.5298C213.418 47.4287 214.566 53.473 217.036 59.0442C222.711 71.8407 235.224 83.765 243.995 94.1092C253.404 105.204 262.862 116.994 273.922 126.569C277.13 129.346 280.963 131.299 284.416 133.734C285.946 134.813 291.509 138.949 291.509 134.675" stroke="white" stroke-width="1.25" stroke-linecap="round"/>
<path d="M168.402 26.5481C157.037 41.2885 145.995 56.474 133.662 70.4427C125.933 79.1975 116.56 86.3945 107.463 93.6384C92.495 105.558 77.3791 117.444 61.6145 128.305C57.2361 131.322 52.1414 134.797 46.7418 135.832C33.383 138.394 29.4985 128.876 25.7534 118.39" stroke="white" stroke-width="1.25" stroke-linecap="round"/>
<path d="M172.96 56.5115C167.021 66.3766 159.985 75.745 153.13 84.9543C144.616 96.3917 138.294 105.139 128.197 115.098C118.819 124.348 107.277 132.883 96.9317 140.863C79.0854 154.628 61.2009 169.1 41.3849 180.053C36.6327 182.68 29.0999 188.053 23.2191 187.399C20.6073 187.109 22.3242 181.726 22.4954 180.27" stroke="white" stroke-width="1.25" stroke-linecap="round"/>
<path d="M154.071 96.8948C154.756 110.585 155.887 124.246 157.147 137.894C158.238 149.707 157.597 168.836 164.855 179.618C169.65 186.741 178.135 190.724 186.314 189.026C196.549 186.902 204.155 178.748 210.74 171.15" stroke="white" stroke-width="1.25" stroke-linecap="round"/>
<path d="M176.868 85.1711C175.809 97.7892 175.272 110.422 175.782 123.095C176.472 140.27 177.632 158.504 185.842 174.046C189.549 181.063 195.563 181.245 202.705 180.487C210.187 179.694 217.54 175.856 224.417 173.105" stroke="white" stroke-width="1.25" stroke-linecap="round"/>
<path d="M197.711 104.06C207.711 129.322 212.561 167.641 244.754 174.118C258.134 176.81 271.047 175.972 284.343 173.756" stroke="white" stroke-width="1.25" stroke-linecap="round"/>
<path d="M210.089 76.0513C214.954 86.8372 220.259 97.4607 225.613 108.004C234.335 125.18 242.537 145.384 257.856 157.942C272.606 170.034 289.382 179.977 305.912 189.388C314.893 194.502 323.377 198.921 333.414 201.113C338.976 202.328 344.865 204.003 346.224 197.205" stroke="white" stroke-width="1.25" stroke-linecap="round"/>
<path d="M227.023 78.6575C228.614 88.8071 229.305 100.643 233.681 110.14C235.977 115.121 241.619 122.915 244.393 126.641C250.081 134.284 259.829 146.53 266.249 153.637C272.698 160.774 278.629 166.557 288.396 164.348C294.608 162.943 299.482 159.92 303.884 155.518" stroke="white" stroke-width="1.25" stroke-linecap="round"/>
<path d="M219.208 57.814C220.384 61.539 222.237 64.3938 224.817 67.4758C234.786 79.3866 247.488 88.9522 260.425 97.4023C266.163 101.15 272.565 104.885 279.206 106.811C283.93 108.181 286.657 109.565 290.207 106.015" stroke="white" stroke-width="1.25" stroke-linecap="round"/>
<path d="M215.298 28.5024C215.369 34.7788 214.713 42.1361 216.89 48.1881C220.514 58.2597 228.396 67.6535 234.766 76.0519C241.303 84.6697 246.245 87.0357 256.261 90.0924C266.982 93.364 280.203 93.7254 290.856 89.7305" stroke="white" stroke-width="1.25" stroke-linecap="round"/>
</svg>
