<svg width="190" height="354" viewBox="0 0 190 354" fill="none" xmlns="http://www.w3.org/2000/svg">
<line y1="-5.625" x2="150.017" y2="-5.625" transform="matrix(-0.112216 -0.993684 -0.993684 0.112216 122.28 342.57)" stroke="white" stroke-width="11.25"/>
<line x1="60.857" y1="341.939" x2="77.6914" y2="192.869" stroke="white" stroke-width="11.25"/>
<line y1="-5.625" x2="77.25" y2="-5.625" transform="matrix(1 0 0 -1 57.7804 177.75)" stroke="white" stroke-width="11.25"/>
<line y1="-5.625" x2="80.9618" y2="-5.625" transform="matrix(0 1 1 0 127.53 93)" stroke="white" stroke-width="11.25"/>
<line y1="-5.625" x2="80.9618" y2="-5.625" transform="matrix(0 1 1 0 75.0304 93)" stroke="white" stroke-width="11.25"/>
<line y1="-6" x2="80.9618" y2="-6" transform="matrix(-0.65503 0.755603 0.755603 0.65503 63.0304 90)" stroke="white" stroke-width="12"/>
<path d="M131.499 87.75L184.531 148.925" stroke="white" stroke-width="12"/>
<line y1="-3.375" x2="54.7683" y2="-3.375" transform="matrix(0 1 1 0 125.28 14.25)" stroke="white" stroke-width="6.75"/>
<path d="M68.2804 14.25V69.0183" stroke="white" stroke-width="6.75"/>
<line y1="-3.375" x2="78.5805" y2="-3.375" transform="matrix(1 0 0 -1 55.9406 0)" stroke="white" stroke-width="6.75"/>
<line y1="-3.375" x2="64.2932" y2="-3.375" transform="matrix(1 0 0 -1 63.987 78)" stroke="white" stroke-width="6.75"/>
<line y1="-2.25" x2="4.76246" y2="-2.25" transform="matrix(-1 0 0 1 108.394 36.2937)" stroke="white" stroke-width="4.5"/>
<line y1="-2.25" x2="4.76246" y2="-2.25" transform="matrix(-1 0 0 1 86.963 36.2937)" stroke="white" stroke-width="4.5"/>
<line y1="-1.125" x2="27.75" y2="-1.125" transform="matrix(-1 0 0 1 108.781 50.2502)" stroke="white" stroke-width="2.25"/>
<line y1="-0.375" x2="3.82426" y2="-0.375" transform="matrix(0 1 1 0 105.781 58.5002)" stroke="white" stroke-width="0.75"/>
<line y1="-0.375" x2="3.82426" y2="-0.375" transform="matrix(0 1 1 0 105.781 62.2502)" stroke="white" stroke-width="0.75"/>
<line y1="-0.375" x2="3.82426" y2="-0.375" transform="matrix(0 1 1 0 97.5313 51.0002)" stroke="white" stroke-width="0.75"/>
<line y1="-0.375" x2="3.82426" y2="-0.375" transform="matrix(0 1 1 0 102.031 58.5002)" stroke="white" stroke-width="0.75"/>
<line y1="-0.375" x2="3.82426" y2="-0.375" transform="matrix(0 1 1 0 102.031 62.2502)" stroke="white" stroke-width="0.75"/>
<line y1="-0.375" x2="3.82426" y2="-0.375" transform="matrix(0 1 1 0 98.2813 58.5002)" stroke="white" stroke-width="0.75"/>
<line y1="-0.375" x2="3.82426" y2="-0.375" transform="matrix(0 1 1 0 98.2813 62.2502)" stroke="white" stroke-width="0.75"/>
<line y1="-0.375" x2="3.82426" y2="-0.375" transform="matrix(0 1 1 0 94.5313 58.5002)" stroke="white" stroke-width="0.75"/>
<line y1="-0.375" x2="3.82426" y2="-0.375" transform="matrix(0 1 1 0 94.5313 62.2502)" stroke="white" stroke-width="0.75"/>
<line y1="-0.375" x2="3.82426" y2="-0.375" transform="matrix(0 1 1 0 90.7813 58.5002)" stroke="white" stroke-width="0.75"/>
<line y1="-0.375" x2="3.82426" y2="-0.375" transform="matrix(0 1 1 0 90.7813 62.2502)" stroke="white" stroke-width="0.75"/>
<line y1="-0.375" x2="3.82426" y2="-0.375" transform="matrix(0 1 1 0 87.0313 58.5002)" stroke="white" stroke-width="0.75"/>
<line y1="-0.375" x2="3.82426" y2="-0.375" transform="matrix(0 1 1 0 87.0313 62.2502)" stroke="white" stroke-width="0.75"/>
<line y1="-0.375" x2="3.82426" y2="-0.375" transform="matrix(0 1 1 0 103.906 58.5369)" stroke="white" stroke-width="0.75"/>
<line y1="-0.375" x2="3.82426" y2="-0.375" transform="matrix(0 1 1 0 103.906 62.2869)" stroke="white" stroke-width="0.75"/>
<line y1="-0.375" x2="3.82426" y2="-0.375" transform="matrix(0 1 1 0 100.156 58.5369)" stroke="white" stroke-width="0.75"/>
<line y1="-0.375" x2="3.82426" y2="-0.375" transform="matrix(0 1 1 0 100.156 62.2869)" stroke="white" stroke-width="0.75"/>
<line y1="-0.375" x2="3.82426" y2="-0.375" transform="matrix(0 1 1 0 96.4063 58.5369)" stroke="white" stroke-width="0.75"/>
<line y1="-0.375" x2="3.82426" y2="-0.375" transform="matrix(0 1 1 0 96.4063 62.2869)" stroke="white" stroke-width="0.75"/>
<line y1="-0.375" x2="3.82426" y2="-0.375" transform="matrix(0 1 1 0 96.0313 51.0002)" stroke="white" stroke-width="0.75"/>
<line y1="-0.375" x2="3.82426" y2="-0.375" transform="matrix(0 1 1 0 94.5313 51.0002)" stroke="white" stroke-width="0.75"/>
<line y1="-0.375" x2="3.82426" y2="-0.375" transform="matrix(0 1 1 0 93.0313 51.0002)" stroke="white" stroke-width="0.75"/>
<line y1="-0.375" x2="3.82426" y2="-0.375" transform="matrix(0 1 1 0 83.2813 63.0002)" stroke="white" stroke-width="0.75"/>
<line y1="-0.375" x2="3.82426" y2="-0.375" transform="matrix(0 1 1 0 107.281 63.0002)" stroke="white" stroke-width="0.75"/>
<line y1="-0.375" x2="3.82426" y2="-0.375" transform="matrix(0 1 1 0 92.6563 58.5369)" stroke="white" stroke-width="0.75"/>
<line y1="-0.375" x2="3.82426" y2="-0.375" transform="matrix(0 1 1 0 92.6563 62.2869)" stroke="white" stroke-width="0.75"/>
<line y1="-0.375" x2="3.82426" y2="-0.375" transform="matrix(0 1 1 0 88.9063 58.5369)" stroke="white" stroke-width="0.75"/>
<line y1="-0.375" x2="3.82426" y2="-0.375" transform="matrix(0 1 1 0 88.9063 62.2869)" stroke="white" stroke-width="0.75"/>
<line y1="-0.375" x2="3.82426" y2="-0.375" transform="matrix(0 1 1 0 105.78 43.5)" stroke="white" stroke-width="0.75"/>
<line y1="-0.375" x2="3.82426" y2="-0.375" transform="matrix(0 1 1 0 102.03 43.5)" stroke="white" stroke-width="0.75"/>
<line y1="-0.375" x2="3.82426" y2="-0.375" transform="matrix(0 1 1 0 98.2804 43.5)" stroke="white" stroke-width="0.75"/>
<line y1="-0.375" x2="3.82426" y2="-0.375" transform="matrix(0 1 1 0 94.5304 43.5)" stroke="white" stroke-width="0.75"/>
<line y1="-0.375" x2="3.82426" y2="-0.375" transform="matrix(0 1 1 0 90.7804 43.5)" stroke="white" stroke-width="0.75"/>
<line y1="-0.375" x2="3.82426" y2="-0.375" transform="matrix(0 1 1 0 87.0304 43.5)" stroke="white" stroke-width="0.75"/>
<line y1="-0.375" x2="3.82426" y2="-0.375" transform="matrix(0 1 1 0 103.905 43.5366)" stroke="white" stroke-width="0.75"/>
<line y1="-0.375" x2="3.82426" y2="-0.375" transform="matrix(0 1 1 0 100.155 43.5366)" stroke="white" stroke-width="0.75"/>
<line y1="-0.375" x2="3.82426" y2="-0.375" transform="matrix(0 1 1 0 96.4054 43.5366)" stroke="white" stroke-width="0.75"/>
<line y1="-0.375" x2="3.82426" y2="-0.375" transform="matrix(0 1 1 0 92.6554 43.5366)" stroke="white" stroke-width="0.75"/>
<line y1="-0.375" x2="3.82426" y2="-0.375" transform="matrix(0 1 1 0 88.9054 43.5366)" stroke="white" stroke-width="0.75"/>
<line y1="-0.375" x2="3.82426" y2="-0.375" transform="matrix(0 1 1 0 85.1554 43.5366)" stroke="white" stroke-width="0.75"/>
<line y1="-0.375" x2="3.82426" y2="-0.375" transform="matrix(0.842483 0.538723 0.538723 -0.842483 114.008 49.6603)" stroke="white" stroke-width="0.75"/>
<line y1="-0.375" x2="3.82426" y2="-0.375" transform="matrix(0.842483 0.538723 0.538723 -0.842483 111.988 52.8192)" stroke="white" stroke-width="0.75"/>
<line y1="-0.375" x2="3.82426" y2="-0.375" transform="matrix(0.842483 0.538723 0.538723 -0.842483 109.968 55.979)" stroke="white" stroke-width="0.75"/>
<line y1="-0.375" x2="3.82426" y2="-0.375" transform="matrix(0.842483 0.538723 0.538723 -0.842483 107.948 59.1378)" stroke="white" stroke-width="0.75"/>
<line y1="-0.375" x2="3.82426" y2="-0.375" transform="matrix(0.842483 0.538723 0.538723 -0.842483 115.049 48.1002)" stroke="white" stroke-width="0.75"/>
<line y1="-0.375" x2="3.82426" y2="-0.375" transform="matrix(0.842483 0.538723 0.538723 -0.842483 113.029 51.2599)" stroke="white" stroke-width="0.75"/>
<line y1="-0.375" x2="3.82426" y2="-0.375" transform="matrix(0.842483 0.538723 0.538723 -0.842483 111.009 54.4188)" stroke="white" stroke-width="0.75"/>
<line y1="-0.375" x2="3.82426" y2="-0.375" transform="matrix(0.842483 0.538723 0.538723 -0.842483 108.989 57.5785)" stroke="white" stroke-width="0.75"/>
<line y1="-0.375" x2="3.82426" y2="-0.375" transform="matrix(0.842483 0.538723 0.538723 -0.842483 106.969 60.7374)" stroke="white" stroke-width="0.75"/>
<line x1="76.4131" y1="49.8956" x2="73.1913" y2="51.9559" stroke="white" stroke-width="0.75"/>
<line x1="78.4331" y1="53.0547" x2="75.2113" y2="55.1149" stroke="white" stroke-width="0.75"/>
<line x1="80.4532" y1="56.2142" x2="77.2313" y2="58.2745" stroke="white" stroke-width="0.75"/>
<line x1="82.4732" y1="59.3732" x2="79.2513" y2="61.4334" stroke="white" stroke-width="0.75"/>
<line x1="75.3716" y1="48.3356" x2="72.1497" y2="50.3958" stroke="white" stroke-width="0.75"/>
<line x1="77.3916" y1="51.4953" x2="74.1698" y2="53.5555" stroke="white" stroke-width="0.75"/>
<line x1="79.4117" y1="54.6543" x2="76.1898" y2="56.7145" stroke="white" stroke-width="0.75"/>
<line x1="81.4317" y1="57.8139" x2="78.2098" y2="59.8741" stroke="white" stroke-width="0.75"/>
<line x1="83.4517" y1="60.9728" x2="80.2298" y2="63.033" stroke="white" stroke-width="0.75"/>
<line y1="-0.375" x2="3.82426" y2="-0.375" transform="matrix(0 1 1 0 85.1563 58.5369)" stroke="white" stroke-width="0.75"/>
<line y1="-0.375" x2="3.82426" y2="-0.375" transform="matrix(0 1 1 0 85.1563 62.2869)" stroke="white" stroke-width="0.75"/>
<line y1="-0.84375" x2="15.1875" y2="-0.84375" transform="matrix(0 1 1 0 123.46 336.166)" stroke="white" stroke-width="1.6875"/>
<line x1="65.375" y1="336.166" x2="65.375" y2="351.353" stroke="white" stroke-width="1.6875"/>
<path d="M133.023 349.947H162.835" stroke="white" stroke-width="1.6875"/>
<path d="M54.9688 349.947H25.1563" stroke="white" stroke-width="1.6875"/>
<path d="M124.304 337.01H153.835" stroke="white" stroke-width="1.6875"/>
<path d="M63.6875 337.01H34.1563" stroke="white" stroke-width="1.6875"/>
<line y1="-0.84375" x2="8.4375" y2="-0.84375" transform="matrix(1 0 0 -1 124.023 351.916)" stroke="white" stroke-width="1.6875"/>
<line x1="63.9688" y1="352.76" x2="55.5313" y2="352.76" stroke="white" stroke-width="1.6875"/>
<line y1="-0.84375" x2="8.4375" y2="-0.84375" transform="matrix(-0.5 -0.866025 -0.866025 0.5 151.585 343.472)" stroke="white" stroke-width="1.6875"/>
<line x1="35.6756" y1="343.051" x2="39.8943" y2="335.743" stroke="white" stroke-width="1.6875"/>
<line y1="-0.84375" x2="8.4375" y2="-0.84375" transform="matrix(-0.5 -0.866025 -0.866025 0.5 147.085 343.472)" stroke="white" stroke-width="1.6875"/>
<line x1="40.1756" y1="343.051" x2="44.3943" y2="335.743" stroke="white" stroke-width="1.6875"/>
<line y1="-0.84375" x2="8.4375" y2="-0.84375" transform="matrix(-0.5 -0.866025 -0.866025 0.5 142.585 343.472)" stroke="white" stroke-width="1.6875"/>
<line x1="44.6756" y1="343.051" x2="48.8943" y2="335.743" stroke="white" stroke-width="1.6875"/>
<path d="M152.992 337.009L156.929 337.009L161.43 338.697L164.524 341.51L168.461 345.166L168.461 348.822L165.367 349.947L161.992 349.947" stroke="white" stroke-width="1.6875"/>
<path d="M35 337.009L31.0625 337.009L26.5616 338.697L23.4678 341.51L19.5303 345.166L19.5303 348.822L22.625 349.947L25.9993 349.947" stroke="white" stroke-width="1.6875"/>
</svg>
