<svg width="125" height="215" viewBox="0 0 125 215" fill="none" xmlns="http://www.w3.org/2000/svg">
<line y1="-7.5" x2="76.5154" y2="-7.5" transform="matrix(0.587681 0.809093 0.809093 -0.587681 79.3149 143.702)" stroke="white" stroke-width="15"/>
<line y1="-7.5" x2="76.5154" y2="-7.5" transform="matrix(0.587681 0.809093 0.809093 -0.587681 51.7993 143.702)" stroke="white" stroke-width="15"/>
<line y1="-4.5" x2="75.6654" y2="-4.5" transform="matrix(0 1 1 0 48.6162 57.7188)" stroke="white" stroke-width="9"/>
<line y1="-4.5" x2="61.908" y2="-4.5" transform="matrix(-0.613173 0.789949 0.789949 0.613173 45.1768 57.7188)" stroke="white" stroke-width="9"/>
<line x1="76.1182" y1="54.9595" x2="114.079" y2="103.864" stroke="white" stroke-width="9"/>
<line y1="-4.5" x2="75.6654" y2="-4.5" transform="matrix(0 1 1 0 83.0093 57.7188)" stroke="white" stroke-width="9"/>
<line y1="-4.5" x2="53.3097" y2="-4.5" transform="matrix(-1 0 0 1 87.7378 143.702)" stroke="white" stroke-width="9"/>
<line y1="-4.5" x2="75.6654" y2="-4.5" transform="matrix(-1 0 0 1 96.7671 57.7188)" stroke="white" stroke-width="9"/>
<line y1="-2.25" x2="5.159" y2="-2.25" transform="matrix(-1 0 0 1 70.2812 24.7502)" stroke="white" stroke-width="4.5"/>
<line y1="-2.25" x2="5.159" y2="-2.25" transform="matrix(-1 0 0 1 59.7812 24.7502)" stroke="white" stroke-width="4.5"/>
<line y1="-3" x2="36.75" y2="-3" transform="matrix(0 -1 -1 0 76.2812 45.7502)" stroke="white" stroke-width="6"/>
<line y1="-3" x2="36.75" y2="-3" transform="matrix(0 -1 -1 0 42.5312 45.7502)" stroke="white" stroke-width="6"/>
<line y1="-3" x2="31.5" y2="-3" transform="matrix(-1 0 0 1 78.5312 6.75024)" stroke="white" stroke-width="6"/>
</svg>
