<svg width="1013" height="742" viewBox="0 0 1013 742" fill="none" xmlns="http://www.w3.org/2000/svg">
<g clip-path="url(#clip0_39_1934)">
<path d="M839.562 22.5C839.562 16.2868 845.858 11.25 853.625 11.25C861.392 11.25 867.688 16.2868 867.688 22.5C867.688 28.7132 861.392 33.75 853.625 33.75C845.858 33.75 839.562 28.7132 839.562 22.5Z" fill="white"/>
<path d="M839.562 37.5C839.562 31.2868 845.858 26.25 853.625 26.25C861.392 26.25 867.688 31.2868 867.688 37.5C867.688 43.7132 861.392 48.75 853.625 48.75C845.858 48.75 839.562 43.7132 839.562 37.5Z" fill="white"/>
<path d="M839.562 52.5C839.562 46.2868 845.858 41.25 853.625 41.25C861.392 41.25 867.688 46.2868 867.688 52.5C867.688 58.7132 861.392 63.75 853.625 63.75C845.858 63.75 839.562 58.7132 839.562 52.5Z" fill="white"/>
<path d="M839.562 67.5C839.562 61.2868 845.858 56.25 853.625 56.25C861.392 56.25 867.688 61.2868 867.688 67.5C867.688 73.7132 861.392 78.75 853.625 78.75C845.858 78.75 839.562 73.7132 839.562 67.5Z" fill="white"/>
<path d="M839.562 82.5C839.562 76.2868 845.858 71.25 853.625 71.25C861.392 71.25 867.688 76.2868 867.688 82.5C867.688 88.7132 861.392 93.75 853.625 93.75C845.858 93.75 839.562 88.7132 839.562 82.5Z" fill="white"/>
<path d="M839.562 112.5C839.562 106.287 845.858 101.25 853.625 101.25C861.392 101.25 867.688 106.287 867.688 112.5C867.688 118.713 861.392 123.75 853.625 123.75C845.858 123.75 839.562 118.713 839.562 112.5Z" fill="white"/>
<path d="M839.562 127.5C839.562 121.287 845.858 116.25 853.625 116.25C861.392 116.25 867.688 121.287 867.688 127.5C867.688 133.713 861.392 138.75 853.625 138.75C845.858 138.75 839.562 133.713 839.562 127.5Z" fill="white"/>
<path d="M839.562 142.5C839.562 136.287 845.858 131.25 853.625 131.25C861.392 131.25 867.688 136.287 867.688 142.5C867.688 148.713 861.392 153.75 853.625 153.75C845.858 153.75 839.562 148.713 839.562 142.5Z" fill="white"/>
<path d="M839.562 157.5C839.562 151.287 845.858 146.25 853.625 146.25C861.392 146.25 867.688 151.287 867.688 157.5C867.688 163.713 861.392 168.75 853.625 168.75C845.858 168.75 839.562 163.713 839.562 157.5Z" fill="white"/>
<path d="M839.562 172.5C839.562 166.287 845.858 161.25 853.625 161.25C861.392 161.25 867.688 166.287 867.688 172.5C867.688 178.713 861.392 183.75 853.625 183.75C845.858 183.75 839.562 178.713 839.562 172.5Z" fill="white"/>
<path d="M839.562 202.5C839.562 196.287 845.858 191.25 853.625 191.25C861.392 191.25 867.688 196.287 867.688 202.5C867.688 208.713 861.392 213.75 853.625 213.75C845.858 213.75 839.562 208.713 839.562 202.5Z" fill="white"/>
<path d="M839.562 217.5C839.562 211.287 845.858 206.25 853.625 206.25C861.392 206.25 867.688 211.287 867.688 217.5C867.688 223.713 861.392 228.75 853.625 228.75C845.858 228.75 839.562 223.713 839.562 217.5Z" fill="white"/>
<path d="M839.562 232.5C839.562 226.287 845.858 221.25 853.625 221.25C861.392 221.25 867.688 226.287 867.688 232.5C867.688 238.713 861.392 243.75 853.625 243.75C845.858 243.75 839.562 238.713 839.562 232.5Z" fill="white"/>
<path d="M839.562 247.5C839.562 241.287 845.858 236.25 853.625 236.25C861.392 236.25 867.688 241.287 867.688 247.5C867.688 253.713 861.392 258.75 853.625 258.75C845.858 258.75 839.562 253.713 839.562 247.5Z" fill="white"/>
<path d="M858.312 22.5C858.312 16.2868 864.608 11.25 872.375 11.25C880.142 11.25 886.438 16.2868 886.438 22.5C886.438 28.7132 880.142 33.75 872.375 33.75C864.608 33.75 858.312 28.7132 858.312 22.5Z" fill="white"/>
<path d="M858.312 37.5C858.312 31.2868 864.608 26.25 872.375 26.25C880.142 26.25 886.438 31.2868 886.438 37.5C886.438 43.7132 880.142 48.75 872.375 48.75C864.608 48.75 858.312 43.7132 858.312 37.5Z" fill="white"/>
<path d="M858.312 52.5C858.312 46.2868 864.608 41.25 872.375 41.25C880.142 41.25 886.438 46.2868 886.438 52.5C886.438 58.7132 880.142 63.75 872.375 63.75C864.608 63.75 858.312 58.7132 858.312 52.5Z" fill="white"/>
<path d="M858.312 82.5C858.312 76.2868 864.608 71.25 872.375 71.25C880.142 71.25 886.438 76.2868 886.438 82.5C886.438 88.7132 880.142 93.75 872.375 93.75C864.608 93.75 858.312 88.7132 858.312 82.5Z" fill="white"/>
<path d="M858.312 97.5C858.312 91.2868 864.608 86.25 872.375 86.25C880.142 86.25 886.438 91.2868 886.438 97.5C886.438 103.713 880.142 108.75 872.375 108.75C864.608 108.75 858.312 103.713 858.312 97.5Z" fill="white"/>
<path d="M858.312 112.5C858.312 106.287 864.608 101.25 872.375 101.25C880.142 101.25 886.438 106.287 886.438 112.5C886.438 118.713 880.142 123.75 872.375 123.75C864.608 123.75 858.312 118.713 858.312 112.5Z" fill="white"/>
<path d="M858.312 127.5C858.312 121.287 864.608 116.25 872.375 116.25C880.142 116.25 886.438 121.287 886.438 127.5C886.438 133.713 880.142 138.75 872.375 138.75C864.608 138.75 858.312 133.713 858.312 127.5Z" fill="white"/>
<path d="M858.312 142.5C858.312 136.287 864.608 131.25 872.375 131.25C880.142 131.25 886.438 136.287 886.438 142.5C886.438 148.713 880.142 153.75 872.375 153.75C864.608 153.75 858.312 148.713 858.312 142.5Z" fill="white"/>
<path d="M858.312 157.5C858.312 151.287 864.608 146.25 872.375 146.25C880.142 146.25 886.438 151.287 886.438 157.5C886.438 163.713 880.142 168.75 872.375 168.75C864.608 168.75 858.312 163.713 858.312 157.5Z" fill="white"/>
<path d="M858.312 172.5C858.312 166.287 864.608 161.25 872.375 161.25C880.142 161.25 886.438 166.287 886.438 172.5C886.438 178.713 880.142 183.75 872.375 183.75C864.608 183.75 858.312 178.713 858.312 172.5Z" fill="white"/>
<path d="M858.312 187.5C858.312 181.287 864.608 176.25 872.375 176.25C880.142 176.25 886.438 181.287 886.438 187.5C886.438 193.713 880.142 198.75 872.375 198.75C864.608 198.75 858.312 193.713 858.312 187.5Z" fill="white"/>
<path d="M858.312 202.5C858.312 196.287 864.608 191.25 872.375 191.25C880.142 191.25 886.438 196.287 886.438 202.5C886.438 208.713 880.142 213.75 872.375 213.75C864.608 213.75 858.312 208.713 858.312 202.5Z" fill="white"/>
<path d="M858.312 217.5C858.312 211.287 864.608 206.25 872.375 206.25C880.142 206.25 886.438 211.287 886.438 217.5C886.438 223.713 880.142 228.75 872.375 228.75C864.608 228.75 858.312 223.713 858.312 217.5Z" fill="white"/>
<path d="M858.312 232.5C858.312 226.287 864.608 221.25 872.375 221.25C880.142 221.25 886.438 226.287 886.438 232.5C886.438 238.713 880.142 243.75 872.375 243.75C864.608 243.75 858.312 238.713 858.312 232.5Z" fill="white"/>
<path d="M858.312 247.5C858.312 241.287 864.608 236.25 872.375 236.25C880.142 236.25 886.438 241.287 886.438 247.5C886.438 253.713 880.142 258.75 872.375 258.75C864.608 258.75 858.312 253.713 858.312 247.5Z" fill="white"/>
<path d="M858.312 262.5C858.312 256.287 864.608 251.25 872.375 251.25C880.142 251.25 886.438 256.287 886.438 262.5C886.438 268.713 880.142 273.75 872.375 273.75C864.608 273.75 858.312 268.713 858.312 262.5Z" fill="white"/>
<path d="M877.062 37.5C877.062 31.2868 883.358 26.25 891.125 26.25C898.892 26.25 905.188 31.2868 905.188 37.5C905.188 43.7132 898.892 48.75 891.125 48.75C883.358 48.75 877.062 43.7132 877.062 37.5Z" fill="white"/>
<path d="M877.062 142.5C877.062 136.287 883.358 131.25 891.125 131.25C898.892 131.25 905.188 136.287 905.188 142.5C905.188 148.713 898.892 153.75 891.125 153.75C883.358 153.75 877.062 148.713 877.062 142.5Z" fill="white"/>
<path d="M877.062 157.5C877.062 151.287 883.358 146.25 891.125 146.25C898.892 146.25 905.188 151.287 905.188 157.5C905.188 163.713 898.892 168.75 891.125 168.75C883.358 168.75 877.062 163.713 877.062 157.5Z" fill="white"/>
<path d="M877.062 202.5C877.062 196.287 883.358 191.25 891.125 191.25C898.892 191.25 905.188 196.287 905.188 202.5C905.188 208.713 898.892 213.75 891.125 213.75C883.358 213.75 877.062 208.713 877.062 202.5Z" fill="white"/>
<path d="M877.062 262.5C877.062 256.287 883.358 251.25 891.125 251.25C898.892 251.25 905.188 256.287 905.188 262.5C905.188 268.713 898.892 273.75 891.125 273.75C883.358 273.75 877.062 268.713 877.062 262.5Z" fill="white"/>
<path d="M895.812 22.5C895.812 16.2868 902.108 11.25 909.875 11.25C917.642 11.25 923.938 16.2868 923.938 22.5C923.938 28.7132 917.642 33.75 909.875 33.75C902.108 33.75 895.812 28.7132 895.812 22.5Z" fill="white"/>
<path d="M895.812 37.5C895.812 31.2868 902.108 26.25 909.875 26.25C917.642 26.25 923.938 31.2868 923.938 37.5C923.938 43.7132 917.642 48.75 909.875 48.75C902.108 48.75 895.812 43.7132 895.812 37.5Z" fill="white"/>
<path d="M895.812 142.5C895.812 136.287 902.108 131.25 909.875 131.25C917.642 131.25 923.938 136.287 923.938 142.5C923.938 148.713 917.642 153.75 909.875 153.75C902.108 153.75 895.812 148.713 895.812 142.5Z" fill="white"/>
<path d="M895.812 157.5C895.812 151.287 902.108 146.25 909.875 146.25C917.642 146.25 923.938 151.287 923.938 157.5C923.938 163.713 917.642 168.75 909.875 168.75C902.108 168.75 895.812 163.713 895.812 157.5Z" fill="white"/>
<path d="M895.812 247.5C895.812 241.287 902.108 236.25 909.875 236.25C917.642 236.25 923.938 241.287 923.938 247.5C923.938 253.713 917.642 258.75 909.875 258.75C902.108 258.75 895.812 253.713 895.812 247.5Z" fill="white"/>
<path d="M895.812 262.5C895.812 256.287 902.108 251.25 909.875 251.25C917.642 251.25 923.938 256.287 923.938 262.5C923.938 268.713 917.642 273.75 909.875 273.75C902.108 273.75 895.812 268.713 895.812 262.5Z" fill="white"/>
<path d="M914.562 22.5C914.562 16.2868 920.858 11.25 928.625 11.25C936.392 11.25 942.688 16.2868 942.688 22.5C942.688 28.7132 936.392 33.75 928.625 33.75C920.858 33.75 914.562 28.7132 914.562 22.5Z" fill="white"/>
<path d="M914.562 37.5C914.562 31.2868 920.858 26.25 928.625 26.25C936.392 26.25 942.688 31.2868 942.688 37.5C942.688 43.7132 936.392 48.75 928.625 48.75C920.858 48.75 914.562 43.7132 914.562 37.5Z" fill="white"/>
<path d="M914.562 127.5C914.562 121.287 920.858 116.25 928.625 116.25C936.392 116.25 942.688 121.287 942.688 127.5C942.688 133.713 936.392 138.75 928.625 138.75C920.858 138.75 914.562 133.713 914.562 127.5Z" fill="white"/>
<path d="M914.562 142.5C914.562 136.287 920.858 131.25 928.625 131.25C936.392 131.25 942.688 136.287 942.688 142.5C942.688 148.713 936.392 153.75 928.625 153.75C920.858 153.75 914.562 148.713 914.562 142.5Z" fill="white"/>
<path d="M914.562 247.5C914.562 241.287 920.858 236.25 928.625 236.25C936.392 236.25 942.688 241.287 942.688 247.5C942.688 253.713 936.392 258.75 928.625 258.75C920.858 258.75 914.562 253.713 914.562 247.5Z" fill="white"/>
<path d="M914.562 262.5C914.562 256.287 920.858 251.25 928.625 251.25C936.392 251.25 942.688 256.287 942.688 262.5C942.688 268.713 936.392 273.75 928.625 273.75C920.858 273.75 914.562 268.713 914.562 262.5Z" fill="white"/>
<path d="M933.312 22.5C933.312 16.2868 939.608 11.25 947.375 11.25C955.142 11.25 961.438 16.2868 961.438 22.5C961.438 28.7132 955.142 33.75 947.375 33.75C939.608 33.75 933.312 28.7132 933.312 22.5Z" fill="white"/>
<path d="M933.312 37.5C933.312 31.2868 939.608 26.25 947.375 26.25C955.142 26.25 961.438 31.2868 961.438 37.5C961.438 43.7132 955.142 48.75 947.375 48.75C939.608 48.75 933.312 43.7132 933.312 37.5Z" fill="white"/>
<path d="M933.312 142.5C933.312 136.287 939.608 131.25 947.375 131.25C955.142 131.25 961.438 136.287 961.438 142.5C961.438 148.713 955.142 153.75 947.375 153.75C939.608 153.75 933.312 148.713 933.312 142.5Z" fill="white"/>
<path d="M933.312 157.5C933.312 151.287 939.608 146.25 947.375 146.25C955.142 146.25 961.438 151.287 961.438 157.5C961.438 163.713 955.142 168.75 947.375 168.75C939.608 168.75 933.312 163.713 933.312 157.5Z" fill="white"/>
<path d="M933.312 247.5C933.312 241.287 939.608 236.25 947.375 236.25C955.142 236.25 961.438 241.287 961.438 247.5C961.438 253.713 955.142 258.75 947.375 258.75C939.608 258.75 933.312 253.713 933.312 247.5Z" fill="white"/>
<path d="M933.312 262.5C933.312 256.287 939.608 251.25 947.375 251.25C955.142 251.25 961.438 256.287 961.438 262.5C961.438 268.713 955.142 273.75 947.375 273.75C939.608 273.75 933.312 268.713 933.312 262.5Z" fill="white"/>
<path d="M952.062 22.5C952.062 16.2868 958.358 11.25 966.125 11.25C973.892 11.25 980.188 16.2868 980.188 22.5C980.188 28.7132 973.892 33.75 966.125 33.75C958.358 33.75 952.062 28.7132 952.062 22.5Z" fill="white"/>
<path d="M952.062 37.5C952.062 31.2868 958.358 26.25 966.125 26.25C973.892 26.25 980.188 31.2868 980.188 37.5C980.188 43.7132 973.892 48.75 966.125 48.75C958.358 48.75 952.062 43.7132 952.062 37.5Z" fill="white"/>
<path d="M952.062 142.5C952.062 136.287 958.358 131.25 966.125 131.25C973.892 131.25 980.188 136.287 980.188 142.5C980.188 148.713 973.892 153.75 966.125 153.75C958.358 153.75 952.062 148.713 952.062 142.5Z" fill="white"/>
<path d="M952.062 157.5C952.062 151.287 958.358 146.25 966.125 146.25C973.892 146.25 980.188 151.287 980.188 157.5C980.188 163.713 973.892 168.75 966.125 168.75C958.358 168.75 952.062 163.713 952.062 157.5Z" fill="white"/>
<path d="M952.062 247.5C952.062 241.287 958.358 236.25 966.125 236.25C973.892 236.25 980.188 241.287 980.188 247.5C980.188 253.713 973.892 258.75 966.125 258.75C958.358 258.75 952.062 253.713 952.062 247.5Z" fill="white"/>
<path d="M952.062 262.5C952.062 256.287 958.358 251.25 966.125 251.25C973.892 251.25 980.188 256.287 980.188 262.5C980.188 268.713 973.892 273.75 966.125 273.75C958.358 273.75 952.062 268.713 952.062 262.5Z" fill="white"/>
<path d="M970.812 37.5C970.812 31.2868 977.108 26.25 984.875 26.25C992.642 26.25 998.938 31.2868 998.938 37.5C998.938 43.7132 992.642 48.75 984.875 48.75C977.108 48.75 970.812 43.7132 970.812 37.5Z" fill="white"/>
<path d="M970.812 142.5C970.812 136.287 977.108 131.25 984.875 131.25C992.642 131.25 998.938 136.287 998.938 142.5C998.938 148.713 992.642 153.75 984.875 153.75C977.108 153.75 970.812 148.713 970.812 142.5Z" fill="white"/>
<path d="M970.812 157.5C970.812 151.287 977.108 146.25 984.875 146.25C992.642 146.25 998.938 151.287 998.938 157.5C998.938 163.713 992.642 168.75 984.875 168.75C977.108 168.75 970.812 163.713 970.812 157.5Z" fill="white"/>
<path d="M970.812 247.5C970.812 241.287 977.108 236.25 984.875 236.25C992.642 236.25 998.938 241.287 998.938 247.5C998.938 253.713 992.642 258.75 984.875 258.75C977.108 258.75 970.812 253.713 970.812 247.5Z" fill="white"/>
<path d="M970.812 262.5C970.812 256.287 977.108 251.25 984.875 251.25C992.642 251.25 998.938 256.287 998.938 262.5C998.938 268.713 992.642 273.75 984.875 273.75C977.108 273.75 970.812 268.713 970.812 262.5Z" fill="white"/>
</g>
<g clip-path="url(#clip1_39_1934)">
<rect width="225" height="300" transform="translate(0 11)" fill="#FF0000"/>
<path d="M14.0625 168.5C14.0625 162.287 20.3585 157.25 28.125 157.25C35.8915 157.25 42.1875 162.287 42.1875 168.5C42.1875 174.713 35.8915 179.75 28.125 179.75C20.3585 179.75 14.0625 174.713 14.0625 168.5Z" fill="white"/>
<path d="M14.0625 183.5C14.0625 177.287 20.3585 172.25 28.125 172.25C35.8915 172.25 42.1875 177.287 42.1875 183.5C42.1875 189.713 35.8915 194.75 28.125 194.75C20.3585 194.75 14.0625 189.713 14.0625 183.5Z" fill="white"/>
<path d="M14.0625 198.5C14.0625 192.287 20.3585 187.25 28.125 187.25C35.8915 187.25 42.1875 192.287 42.1875 198.5C42.1875 204.713 35.8915 209.75 28.125 209.75C20.3585 209.75 14.0625 204.713 14.0625 198.5Z" fill="white"/>
<path d="M14.0625 213.5C14.0625 207.287 20.3585 202.25 28.125 202.25C35.8915 202.25 42.1875 207.287 42.1875 213.5C42.1875 219.713 35.8915 224.75 28.125 224.75C20.3585 224.75 14.0625 219.713 14.0625 213.5Z" fill="white"/>
<path d="M14.0625 228.5C14.0625 222.287 20.3585 217.25 28.125 217.25C35.8915 217.25 42.1875 222.287 42.1875 228.5C42.1875 234.713 35.8915 239.75 28.125 239.75C20.3585 239.75 14.0625 234.713 14.0625 228.5Z" fill="white"/>
<path d="M14.0625 243.5C14.0625 237.287 20.3585 232.25 28.125 232.25C35.8915 232.25 42.1875 237.287 42.1875 243.5C42.1875 249.713 35.8915 254.75 28.125 254.75C20.3585 254.75 14.0625 249.713 14.0625 243.5Z" fill="white"/>
<path d="M32.8125 108.5C32.8125 102.287 39.1085 97.25 46.875 97.25C54.6415 97.25 60.9375 102.287 60.9375 108.5C60.9375 114.713 54.6415 119.75 46.875 119.75C39.1085 119.75 32.8125 114.713 32.8125 108.5Z" fill="white"/>
<path d="M32.8125 123.5C32.8125 117.287 39.1085 112.25 46.875 112.25C54.6415 112.25 60.9375 117.287 60.9375 123.5C60.9375 129.713 54.6415 134.75 46.875 134.75C39.1085 134.75 32.8125 129.713 32.8125 123.5Z" fill="white"/>
<path d="M32.8125 138.5C32.8125 132.287 39.1085 127.25 46.875 127.25C54.6415 127.25 60.9375 132.287 60.9375 138.5C60.9375 144.713 54.6415 149.75 46.875 149.75C39.1085 149.75 32.8125 144.713 32.8125 138.5Z" fill="white"/>
<path d="M32.8125 153.5C32.8125 147.287 39.1085 142.25 46.875 142.25C54.6415 142.25 60.9375 147.287 60.9375 153.5C60.9375 159.713 54.6415 164.75 46.875 164.75C39.1085 164.75 32.8125 159.713 32.8125 153.5Z" fill="white"/>
<path d="M32.8125 168.5C32.8125 162.287 39.1085 157.25 46.875 157.25C54.6415 157.25 60.9375 162.287 60.9375 168.5C60.9375 174.713 54.6415 179.75 46.875 179.75C39.1085 179.75 32.8125 174.713 32.8125 168.5Z" fill="white"/>
<path d="M51.5625 93.5C51.5625 87.2868 57.8585 82.25 65.625 82.25C73.3915 82.25 79.6875 87.2868 79.6875 93.5C79.6875 99.7132 73.3915 104.75 65.625 104.75C57.8585 104.75 51.5625 99.7132 51.5625 93.5Z" fill="white"/>
<path d="M51.5625 108.5C51.5625 102.287 57.8585 97.25 65.625 97.25C73.3915 97.25 79.6875 102.287 79.6875 108.5C79.6875 114.713 73.3915 119.75 65.625 119.75C57.8585 119.75 51.5625 114.713 51.5625 108.5Z" fill="white"/>
<path d="M70.3125 63.5C70.3125 57.2868 76.6085 52.25 84.375 52.25C92.1415 52.25 98.4375 57.2868 98.4375 63.5C98.4375 69.7132 92.1415 74.75 84.375 74.75C76.6085 74.75 70.3125 69.7132 70.3125 63.5Z" fill="white"/>
<path d="M70.3125 78.5C70.3125 72.2868 76.6085 67.25 84.375 67.25C92.1415 67.25 98.4375 72.2868 98.4375 78.5C98.4375 84.7132 92.1415 89.75 84.375 89.75C76.6085 89.75 70.3125 84.7132 70.3125 78.5Z" fill="white"/>
<path d="M70.3125 93.5C70.3125 87.2868 76.6085 82.25 84.375 82.25C92.1415 82.25 98.4375 87.2868 98.4375 93.5C98.4375 99.7132 92.1415 104.75 84.375 104.75C76.6085 104.75 70.3125 99.7132 70.3125 93.5Z" fill="white"/>
<path d="M70.3125 108.5C70.3125 102.287 76.6085 97.25 84.375 97.25C92.1415 97.25 98.4375 102.287 98.4375 108.5C98.4375 114.713 92.1415 119.75 84.375 119.75C76.6085 119.75 70.3125 114.713 70.3125 108.5Z" fill="white"/>
<path d="M89.0625 78.5C89.0625 72.2868 95.3585 67.25 103.125 67.25C110.892 67.25 117.188 72.2868 117.188 78.5C117.188 84.7132 110.892 89.75 103.125 89.75C95.3585 89.75 89.0625 84.7132 89.0625 78.5Z" fill="white"/>
<path d="M89.0625 93.5C89.0625 87.2868 95.3585 82.25 103.125 82.25C110.892 82.25 117.188 87.2868 117.188 93.5C117.188 99.7132 110.892 104.75 103.125 104.75C95.3585 104.75 89.0625 99.7132 89.0625 93.5Z" fill="white"/>
<path d="M89.0625 108.5C89.0625 102.287 95.3585 97.25 103.125 97.25C110.892 97.25 117.188 102.287 117.188 108.5C117.188 114.713 110.892 119.75 103.125 119.75C95.3585 119.75 89.0625 114.713 89.0625 108.5Z" fill="white"/>
<path d="M107.812 108.5C107.812 102.287 114.108 97.25 121.875 97.25C129.642 97.25 135.938 102.287 135.938 108.5C135.938 114.713 129.642 119.75 121.875 119.75C114.108 119.75 107.812 114.713 107.812 108.5Z" fill="white"/>
<path d="M107.812 123.5C107.812 117.287 114.108 112.25 121.875 112.25C129.642 112.25 135.938 117.287 135.938 123.5C135.938 129.713 129.642 134.75 121.875 134.75C114.108 134.75 107.812 129.713 107.812 123.5Z" fill="white"/>
<path d="M107.812 138.5C107.812 132.287 114.108 127.25 121.875 127.25C129.642 127.25 135.938 132.287 135.938 138.5C135.938 144.713 129.642 149.75 121.875 149.75C114.108 149.75 107.812 144.713 107.812 138.5Z" fill="white"/>
<path d="M107.812 153.5C107.812 147.287 114.108 142.25 121.875 142.25C129.642 142.25 135.938 147.287 135.938 153.5C135.938 159.713 129.642 164.75 121.875 164.75C114.108 164.75 107.812 159.713 107.812 153.5Z" fill="white"/>
<path d="M126.562 63.5C126.562 57.2868 132.858 52.25 140.625 52.25C148.392 52.25 154.688 57.2868 154.688 63.5C154.688 69.7132 148.392 74.75 140.625 74.75C132.858 74.75 126.562 69.7132 126.562 63.5Z" fill="white"/>
<path d="M126.562 78.5C126.562 72.2868 132.858 67.25 140.625 67.25C148.392 67.25 154.688 72.2868 154.688 78.5C154.688 84.7132 148.392 89.75 140.625 89.75C132.858 89.75 126.562 84.7132 126.562 78.5Z" fill="white"/>
<path d="M126.562 93.5C126.562 87.2868 132.858 82.25 140.625 82.25C148.392 82.25 154.688 87.2868 154.688 93.5C154.688 99.7132 148.392 104.75 140.625 104.75C132.858 104.75 126.562 99.7132 126.562 93.5Z" fill="white"/>
<path d="M126.562 108.5C126.562 102.287 132.858 97.25 140.625 97.25C148.392 97.25 154.688 102.287 154.688 108.5C154.688 114.713 148.392 119.75 140.625 119.75C132.858 119.75 126.562 114.713 126.562 108.5Z" fill="white"/>
<path d="M126.562 123.5C126.562 117.287 132.858 112.25 140.625 112.25C148.392 112.25 154.688 117.287 154.688 123.5C154.688 129.713 148.392 134.75 140.625 134.75C132.858 134.75 126.562 129.713 126.562 123.5Z" fill="white"/>
<path d="M126.562 153.5C126.562 147.287 132.858 142.25 140.625 142.25C148.392 142.25 154.688 147.287 154.688 153.5C154.688 159.713 148.392 164.75 140.625 164.75C132.858 164.75 126.562 159.713 126.562 153.5Z" fill="white"/>
<path d="M145.312 48.5C145.312 42.2868 151.608 37.25 159.375 37.25C167.142 37.25 173.438 42.2868 173.438 48.5C173.438 54.7132 167.142 59.75 159.375 59.75C151.608 59.75 145.312 54.7132 145.312 48.5Z" fill="white"/>
<path d="M145.312 63.5C145.312 57.2868 151.608 52.25 159.375 52.25C167.142 52.25 173.438 57.2868 173.438 63.5C173.438 69.7132 167.142 74.75 159.375 74.75C151.608 74.75 145.312 69.7132 145.312 63.5Z" fill="white"/>
<path d="M145.312 78.5C145.312 72.2868 151.608 67.25 159.375 67.25C167.142 67.25 173.438 72.2868 173.438 78.5C173.438 84.7132 167.142 89.75 159.375 89.75C151.608 89.75 145.312 84.7132 145.312 78.5Z" fill="white"/>
<path d="M164.062 78.5C164.062 72.2868 170.358 67.25 178.125 67.25C185.892 67.25 192.188 72.2868 192.188 78.5C192.188 84.7132 185.892 89.75 178.125 89.75C170.358 89.75 164.062 84.7132 164.062 78.5Z" fill="white"/>
<path d="M164.062 93.5C164.062 87.2868 170.358 82.25 178.125 82.25C185.892 82.25 192.188 87.2868 192.188 93.5C192.188 99.7132 185.892 104.75 178.125 104.75C170.358 104.75 164.062 99.7132 164.062 93.5Z" fill="white"/>
<path d="M164.062 108.5C164.062 102.287 170.358 97.25 178.125 97.25C185.892 97.25 192.188 102.287 192.188 108.5C192.188 114.713 185.892 119.75 178.125 119.75C170.358 119.75 164.062 114.713 164.062 108.5Z" fill="white"/>
<path d="M182.812 108.5C182.812 102.287 189.108 97.25 196.875 97.25C204.642 97.25 210.938 102.287 210.938 108.5C210.938 114.713 204.642 119.75 196.875 119.75C189.108 119.75 182.812 114.713 182.812 108.5Z" fill="white"/>
<path d="M182.812 123.5C182.812 117.287 189.108 112.25 196.875 112.25C204.642 112.25 210.938 117.287 210.938 123.5C210.938 129.713 204.642 134.75 196.875 134.75C189.108 134.75 182.812 129.713 182.812 123.5Z" fill="white"/>
<path d="M182.812 138.5C182.812 132.287 189.108 127.25 196.875 127.25C204.642 127.25 210.938 132.287 210.938 138.5C210.938 144.713 204.642 149.75 196.875 149.75C189.108 149.75 182.812 144.713 182.812 138.5Z" fill="white"/>
<path d="M182.812 153.5C182.812 147.287 189.108 142.25 196.875 142.25C204.642 142.25 210.938 147.287 210.938 153.5C210.938 159.713 204.642 164.75 196.875 164.75C189.108 164.75 182.812 159.713 182.812 153.5Z" fill="white"/>
<path d="M182.812 168.5C182.812 162.287 189.108 157.25 196.875 157.25C204.642 157.25 210.938 162.287 210.938 168.5C210.938 174.713 204.642 179.75 196.875 179.75C189.108 179.75 182.812 174.713 182.812 168.5Z" fill="white"/>
<path d="M182.812 183.5C182.812 177.287 189.108 172.25 196.875 172.25C204.642 172.25 210.938 177.287 210.938 183.5C210.938 189.713 204.642 194.75 196.875 194.75C189.108 194.75 182.812 189.713 182.812 183.5Z" fill="white"/>
<path d="M182.812 198.5C182.812 192.287 189.108 187.25 196.875 187.25C204.642 187.25 210.938 192.287 210.938 198.5C210.938 204.713 204.642 209.75 196.875 209.75C189.108 209.75 182.812 204.713 182.812 198.5Z" fill="white"/>
<path d="M182.812 213.5C182.812 207.287 189.108 202.25 196.875 202.25C204.642 202.25 210.938 207.287 210.938 213.5C210.938 219.713 204.642 224.75 196.875 224.75C189.108 224.75 182.812 219.713 182.812 213.5Z" fill="white"/>
<path d="M182.812 228.5C182.812 222.287 189.108 217.25 196.875 217.25C204.642 217.25 210.938 222.287 210.938 228.5C210.938 234.713 204.642 239.75 196.875 239.75C189.108 239.75 182.812 234.713 182.812 228.5Z" fill="white"/>
<path d="M182.812 243.5C182.812 237.287 189.108 232.25 196.875 232.25C204.642 232.25 210.938 237.287 210.938 243.5C210.938 249.713 204.642 254.75 196.875 254.75C189.108 254.75 182.812 249.713 182.812 243.5Z" fill="white"/>
</g>
<g clip-path="url(#clip2_39_1934)">
<path d="M285.188 153.5C285.188 147.287 291.483 142.25 299.25 142.25C307.017 142.25 313.312 147.287 313.312 153.5C313.312 159.713 307.017 164.75 299.25 164.75C291.483 164.75 285.188 159.713 285.188 153.5Z" fill="white"/>
<path d="M285.188 168.5C285.188 162.287 291.483 157.25 299.25 157.25C307.017 157.25 313.312 162.287 313.312 168.5C313.312 174.713 307.017 179.75 299.25 179.75C291.483 179.75 285.188 174.713 285.188 168.5Z" fill="white"/>
<path d="M285.188 183.5C285.188 177.287 291.483 172.25 299.25 172.25C307.017 172.25 313.312 177.287 313.312 183.5C313.312 189.713 307.017 194.75 299.25 194.75C291.483 194.75 285.188 189.713 285.188 183.5Z" fill="white"/>
<path d="M303.938 123.5C303.938 117.287 310.233 112.25 318 112.25C325.767 112.25 332.062 117.287 332.062 123.5C332.062 129.713 325.767 134.75 318 134.75C310.233 134.75 303.938 129.713 303.938 123.5Z" fill="white"/>
<path d="M303.938 138.5C303.938 132.287 310.233 127.25 318 127.25C325.767 127.25 332.062 132.287 332.062 138.5C332.062 144.713 325.767 149.75 318 149.75C310.233 149.75 303.938 144.713 303.938 138.5Z" fill="white"/>
<path d="M303.938 153.5C303.938 147.287 310.233 142.25 318 142.25C325.767 142.25 332.062 147.287 332.062 153.5C332.062 159.713 325.767 164.75 318 164.75C310.233 164.75 303.938 159.713 303.938 153.5Z" fill="white"/>
<path d="M303.938 168.5C303.938 162.287 310.233 157.25 318 157.25C325.767 157.25 332.062 162.287 332.062 168.5C332.062 174.713 325.767 179.75 318 179.75C310.233 179.75 303.938 174.713 303.938 168.5Z" fill="white"/>
<path d="M303.938 183.5C303.938 177.287 310.233 172.25 318 172.25C325.767 172.25 332.062 177.287 332.062 183.5C332.062 189.713 325.767 194.75 318 194.75C310.233 194.75 303.938 189.713 303.938 183.5Z" fill="white"/>
<path d="M303.938 198.5C303.938 192.287 310.233 187.25 318 187.25C325.767 187.25 332.062 192.287 332.062 198.5C332.062 204.713 325.767 209.75 318 209.75C310.233 209.75 303.938 204.713 303.938 198.5Z" fill="white"/>
<path d="M303.938 213.5C303.938 207.287 310.233 202.25 318 202.25C325.767 202.25 332.062 207.287 332.062 213.5C332.062 219.713 325.767 224.75 318 224.75C310.233 224.75 303.938 219.713 303.938 213.5Z" fill="white"/>
<path d="M322.688 108.5C322.688 102.287 328.983 97.25 336.75 97.25C344.517 97.25 350.812 102.287 350.812 108.5C350.812 114.713 344.517 119.75 336.75 119.75C328.983 119.75 322.688 114.713 322.688 108.5Z" fill="white"/>
<path d="M322.688 123.5C322.688 117.287 328.983 112.25 336.75 112.25C344.517 112.25 350.812 117.287 350.812 123.5C350.812 129.713 344.517 134.75 336.75 134.75C328.983 134.75 322.688 129.713 322.688 123.5Z" fill="white"/>
<path d="M322.688 213.5C322.688 207.287 328.983 202.25 336.75 202.25C344.517 202.25 350.812 207.287 350.812 213.5C350.812 219.713 344.517 224.75 336.75 224.75C328.983 224.75 322.688 219.713 322.688 213.5Z" fill="white"/>
<path d="M322.688 228.5C322.688 222.287 328.983 217.25 336.75 217.25C344.517 217.25 350.812 222.287 350.812 228.5C350.812 234.713 344.517 239.75 336.75 239.75C328.983 239.75 322.688 234.713 322.688 228.5Z" fill="white"/>
<path d="M341.438 93.5C341.438 87.2868 347.733 82.25 355.5 82.25C363.267 82.25 369.562 87.2868 369.562 93.5C369.562 99.7132 363.267 104.75 355.5 104.75C347.733 104.75 341.438 99.7132 341.438 93.5Z" fill="white"/>
<path d="M341.438 108.5C341.438 102.287 347.733 97.25 355.5 97.25C363.267 97.25 369.562 102.287 369.562 108.5C369.562 114.713 363.267 119.75 355.5 119.75C347.733 119.75 341.438 114.713 341.438 108.5Z" fill="white"/>
<path d="M341.438 228.5C341.438 222.287 347.733 217.25 355.5 217.25C363.267 217.25 369.562 222.287 369.562 228.5C369.562 234.713 363.267 239.75 355.5 239.75C347.733 239.75 341.438 234.713 341.438 228.5Z" fill="white"/>
<path d="M341.438 243.5C341.438 237.287 347.733 232.25 355.5 232.25C363.267 232.25 369.562 237.287 369.562 243.5C369.562 249.713 363.267 254.75 355.5 254.75C347.733 254.75 341.438 249.713 341.438 243.5Z" fill="white"/>
<path d="M360.188 93.5C360.188 87.2868 366.483 82.25 374.25 82.25C382.017 82.25 388.312 87.2868 388.312 93.5C388.312 99.7132 382.017 104.75 374.25 104.75C366.483 104.75 360.188 99.7132 360.188 93.5Z" fill="white"/>
<path d="M360.188 243.5C360.188 237.287 366.483 232.25 374.25 232.25C382.017 232.25 388.312 237.287 388.312 243.5C388.312 249.713 382.017 254.75 374.25 254.75C366.483 254.75 360.188 249.713 360.188 243.5Z" fill="white"/>
<path d="M378.938 93.5C378.938 87.2868 385.233 82.25 393 82.25C400.767 82.25 407.062 87.2868 407.062 93.5C407.062 99.7132 400.767 104.75 393 104.75C385.233 104.75 378.938 99.7132 378.938 93.5Z" fill="white"/>
<path d="M378.938 243.5C378.938 237.287 385.233 232.25 393 232.25C400.767 232.25 407.062 237.287 407.062 243.5C407.062 249.713 400.767 254.75 393 254.75C385.233 254.75 378.938 249.713 378.938 243.5Z" fill="white"/>
<path d="M397.688 93.5C397.688 87.2868 403.983 82.25 411.75 82.25C419.517 82.25 425.812 87.2868 425.812 93.5C425.812 99.7132 419.517 104.75 411.75 104.75C403.983 104.75 397.688 99.7132 397.688 93.5Z" fill="white"/>
<path d="M397.688 108.5C397.688 102.287 403.983 97.25 411.75 97.25C419.517 97.25 425.812 102.287 425.812 108.5C425.812 114.713 419.517 119.75 411.75 119.75C403.983 119.75 397.688 114.713 397.688 108.5Z" fill="white"/>
<path d="M397.688 243.5C397.688 237.287 403.983 232.25 411.75 232.25C419.517 232.25 425.812 237.287 425.812 243.5C425.812 249.713 419.517 254.75 411.75 254.75C403.983 254.75 397.688 249.713 397.688 243.5Z" fill="white"/>
<path d="M416.438 93.5C416.438 87.2868 422.733 82.25 430.5 82.25C438.267 82.25 444.562 87.2868 444.562 93.5C444.562 99.7132 438.267 104.75 430.5 104.75C422.733 104.75 416.438 99.7132 416.438 93.5Z" fill="white"/>
<path d="M416.438 108.5C416.438 102.287 422.733 97.25 430.5 97.25C438.267 97.25 444.562 102.287 444.562 108.5C444.562 114.713 438.267 119.75 430.5 119.75C422.733 119.75 416.438 114.713 416.438 108.5Z" fill="white"/>
<path d="M416.438 228.5C416.438 222.287 422.733 217.25 430.5 217.25C438.267 217.25 444.562 222.287 444.562 228.5C444.562 234.713 438.267 239.75 430.5 239.75C422.733 239.75 416.438 234.713 416.438 228.5Z" fill="white"/>
<path d="M416.438 243.5C416.438 237.287 422.733 232.25 430.5 232.25C438.267 232.25 444.562 237.287 444.562 243.5C444.562 249.713 438.267 254.75 430.5 254.75C422.733 254.75 416.438 249.713 416.438 243.5Z" fill="white"/>
<path d="M435.188 108.5C435.188 102.287 441.483 97.25 449.25 97.25C457.017 97.25 463.312 102.287 463.312 108.5C463.312 114.713 457.017 119.75 449.25 119.75C441.483 119.75 435.188 114.713 435.188 108.5Z" fill="white"/>
<path d="M435.188 123.5C435.188 117.287 441.483 112.25 449.25 112.25C457.017 112.25 463.312 117.287 463.312 123.5C463.312 129.713 457.017 134.75 449.25 134.75C441.483 134.75 435.188 129.713 435.188 123.5Z" fill="white"/>
<path d="M435.188 138.5C435.188 132.287 441.483 127.25 449.25 127.25C457.017 127.25 463.312 132.287 463.312 138.5C463.312 144.713 457.017 149.75 449.25 149.75C441.483 149.75 435.188 144.713 435.188 138.5Z" fill="white"/>
<path d="M435.188 153.5C435.188 147.287 441.483 142.25 449.25 142.25C457.017 142.25 463.312 147.287 463.312 153.5C463.312 159.713 457.017 164.75 449.25 164.75C441.483 164.75 435.188 159.713 435.188 153.5Z" fill="white"/>
<path d="M435.188 168.5C435.188 162.287 441.483 157.25 449.25 157.25C457.017 157.25 463.312 162.287 463.312 168.5C463.312 174.713 457.017 179.75 449.25 179.75C441.483 179.75 435.188 174.713 435.188 168.5Z" fill="white"/>
<path d="M435.188 183.5C435.188 177.287 441.483 172.25 449.25 172.25C457.017 172.25 463.312 177.287 463.312 183.5C463.312 189.713 457.017 194.75 449.25 194.75C441.483 194.75 435.188 189.713 435.188 183.5Z" fill="white"/>
<path d="M435.188 198.5C435.188 192.287 441.483 187.25 449.25 187.25C457.017 187.25 463.312 192.287 463.312 198.5C463.312 204.713 457.017 209.75 449.25 209.75C441.483 209.75 435.188 204.713 435.188 198.5Z" fill="white"/>
<path d="M435.188 213.5C435.188 207.287 441.483 202.25 449.25 202.25C457.017 202.25 463.312 207.287 463.312 213.5C463.312 219.713 457.017 224.75 449.25 224.75C441.483 224.75 435.188 219.713 435.188 213.5Z" fill="white"/>
<path d="M435.188 228.5C435.188 222.287 441.483 217.25 449.25 217.25C457.017 217.25 463.312 222.287 463.312 228.5C463.312 234.713 457.017 239.75 449.25 239.75C441.483 239.75 435.188 234.713 435.188 228.5Z" fill="white"/>
<path d="M453.938 153.5C453.938 147.287 460.233 142.25 468 142.25C475.767 142.25 482.062 147.287 482.062 153.5C482.062 159.713 475.767 164.75 468 164.75C460.233 164.75 453.938 159.713 453.938 153.5Z" fill="white"/>
<path d="M453.938 168.5C453.938 162.287 460.233 157.25 468 157.25C475.767 157.25 482.062 162.287 482.062 168.5C482.062 174.713 475.767 179.75 468 179.75C460.233 179.75 453.938 174.713 453.938 168.5Z" fill="white"/>
<path d="M453.938 183.5C453.938 177.287 460.233 172.25 468 172.25C475.767 172.25 482.062 177.287 482.062 183.5C482.062 189.713 475.767 194.75 468 194.75C460.233 194.75 453.938 189.713 453.938 183.5Z" fill="white"/>
<path d="M453.938 198.5C453.938 192.287 460.233 187.25 468 187.25C475.767 187.25 482.062 192.287 482.062 198.5C482.062 204.713 475.767 209.75 468 209.75C460.233 209.75 453.938 204.713 453.938 198.5Z" fill="white"/>
</g>
<g clip-path="url(#clip3_39_1934)">
<rect width="225" height="300" transform="translate(521 11)" fill="white"/>
<path d="M553.812 93.5C553.812 87.2868 560.108 82.25 567.875 82.25C575.642 82.25 581.938 87.2868 581.938 93.5C581.938 99.7132 575.642 104.75 567.875 104.75C560.108 104.75 553.812 99.7132 553.812 93.5Z" fill="black"/>
<path d="M553.812 108.5C553.812 102.287 560.108 97.25 567.875 97.25C575.642 97.25 581.938 102.287 581.938 108.5C581.938 114.713 575.642 119.75 567.875 119.75C560.108 119.75 553.812 114.713 553.812 108.5Z" fill="black"/>
<path d="M553.812 123.5C553.812 117.287 560.108 112.25 567.875 112.25C575.642 112.25 581.938 117.287 581.938 123.5C581.938 129.713 575.642 134.75 567.875 134.75C560.108 134.75 553.812 129.713 553.812 123.5Z" fill="black"/>
<path d="M553.812 228.5C553.812 222.287 560.108 217.25 567.875 217.25C575.642 217.25 581.938 222.287 581.938 228.5C581.938 234.713 575.642 239.75 567.875 239.75C560.108 239.75 553.812 234.713 553.812 228.5Z" fill="black"/>
<path d="M553.812 243.5C553.812 237.287 560.108 232.25 567.875 232.25C575.642 232.25 581.938 237.287 581.938 243.5C581.938 249.713 575.642 254.75 567.875 254.75C560.108 254.75 553.812 249.713 553.812 243.5Z" fill="black"/>
<path d="M553.812 258.5C553.812 252.287 560.108 247.25 567.875 247.25C575.642 247.25 581.938 252.287 581.938 258.5C581.938 264.713 575.642 269.75 567.875 269.75C560.108 269.75 553.812 264.713 553.812 258.5Z" fill="black"/>
<path d="M572.562 78.5C572.562 72.2868 578.858 67.25 586.625 67.25C594.392 67.25 600.688 72.2868 600.688 78.5C600.688 84.7132 594.392 89.75 586.625 89.75C578.858 89.75 572.562 84.7132 572.562 78.5Z" fill="black"/>
<path d="M572.562 93.5C572.562 87.2868 578.858 82.25 586.625 82.25C594.392 82.25 600.688 87.2868 600.688 93.5C600.688 99.7132 594.392 104.75 586.625 104.75C578.858 104.75 572.562 99.7132 572.562 93.5Z" fill="black"/>
<path d="M572.562 123.5C572.562 117.287 578.858 112.25 586.625 112.25C594.392 112.25 600.688 117.287 600.688 123.5C600.688 129.713 594.392 134.75 586.625 134.75C578.858 134.75 572.562 129.713 572.562 123.5Z" fill="black"/>
<path d="M572.562 138.5C572.562 132.287 578.858 127.25 586.625 127.25C594.392 127.25 600.688 132.287 600.688 138.5C600.688 144.713 594.392 149.75 586.625 149.75C578.858 149.75 572.562 144.713 572.562 138.5Z" fill="black"/>
<path d="M572.562 153.5C572.562 147.287 578.858 142.25 586.625 142.25C594.392 142.25 600.688 147.287 600.688 153.5C600.688 159.713 594.392 164.75 586.625 164.75C578.858 164.75 572.562 159.713 572.562 153.5Z" fill="black"/>
<path d="M572.562 168.5C572.562 162.287 578.858 157.25 586.625 157.25C594.392 157.25 600.688 162.287 600.688 168.5C600.688 174.713 594.392 179.75 586.625 179.75C578.858 179.75 572.562 174.713 572.562 168.5Z" fill="black"/>
<path d="M572.562 183.5C572.562 177.287 578.858 172.25 586.625 172.25C594.392 172.25 600.688 177.287 600.688 183.5C600.688 189.713 594.392 194.75 586.625 194.75C578.858 194.75 572.562 189.713 572.562 183.5Z" fill="black"/>
<path d="M572.562 198.5C572.562 192.287 578.858 187.25 586.625 187.25C594.392 187.25 600.688 192.287 600.688 198.5C600.688 204.713 594.392 209.75 586.625 209.75C578.858 209.75 572.562 204.713 572.562 198.5Z" fill="black"/>
<path d="M572.562 213.5C572.562 207.287 578.858 202.25 586.625 202.25C594.392 202.25 600.688 207.287 600.688 213.5C600.688 219.713 594.392 224.75 586.625 224.75C578.858 224.75 572.562 219.713 572.562 213.5Z" fill="black"/>
<path d="M572.562 228.5C572.562 222.287 578.858 217.25 586.625 217.25C594.392 217.25 600.688 222.287 600.688 228.5C600.688 234.713 594.392 239.75 586.625 239.75C578.858 239.75 572.562 234.713 572.562 228.5Z" fill="black"/>
<path d="M572.562 243.5C572.562 237.287 578.858 232.25 586.625 232.25C594.392 232.25 600.688 237.287 600.688 243.5C600.688 249.713 594.392 254.75 586.625 254.75C578.858 254.75 572.562 249.713 572.562 243.5Z" fill="black"/>
<path d="M591.312 78.5C591.312 72.2868 597.608 67.25 605.375 67.25C613.142 67.25 619.438 72.2868 619.438 78.5C619.438 84.7132 613.142 89.75 605.375 89.75C597.608 89.75 591.312 84.7132 591.312 78.5Z" fill="black"/>
<path d="M591.312 93.5C591.312 87.2868 597.608 82.25 605.375 82.25C613.142 82.25 619.438 87.2868 619.438 93.5C619.438 99.7132 613.142 104.75 605.375 104.75C597.608 104.75 591.312 99.7132 591.312 93.5Z" fill="black"/>
<path d="M591.312 168.5C591.312 162.287 597.608 157.25 605.375 157.25C613.142 157.25 619.438 162.287 619.438 168.5C619.438 174.713 613.142 179.75 605.375 179.75C597.608 179.75 591.312 174.713 591.312 168.5Z" fill="black"/>
<path d="M591.312 183.5C591.312 177.287 597.608 172.25 605.375 172.25C613.142 172.25 619.438 177.287 619.438 183.5C619.438 189.713 613.142 194.75 605.375 194.75C597.608 194.75 591.312 189.713 591.312 183.5Z" fill="black"/>
<path d="M610.062 93.5C610.062 87.2868 616.358 82.25 624.125 82.25C631.892 82.25 638.188 87.2868 638.188 93.5C638.188 99.7132 631.892 104.75 624.125 104.75C616.358 104.75 610.062 99.7132 610.062 93.5Z" fill="black"/>
<path d="M610.062 168.5C610.062 162.287 616.358 157.25 624.125 157.25C631.892 157.25 638.188 162.287 638.188 168.5C638.188 174.713 631.892 179.75 624.125 179.75C616.358 179.75 610.062 174.713 610.062 168.5Z" fill="black"/>
<path d="M610.062 183.5C610.062 177.287 616.358 172.25 624.125 172.25C631.892 172.25 638.188 177.287 638.188 183.5C638.188 189.713 631.892 194.75 624.125 194.75C616.358 194.75 610.062 189.713 610.062 183.5Z" fill="black"/>
<path d="M628.812 93.5C628.812 87.2868 635.108 82.25 642.875 82.25C650.642 82.25 656.938 87.2868 656.938 93.5C656.938 99.7132 650.642 104.75 642.875 104.75C635.108 104.75 628.812 99.7132 628.812 93.5Z" fill="black"/>
<path d="M628.812 168.5C628.812 162.287 635.108 157.25 642.875 157.25C650.642 157.25 656.938 162.287 656.938 168.5C656.938 174.713 650.642 179.75 642.875 179.75C635.108 179.75 628.812 174.713 628.812 168.5Z" fill="black"/>
<path d="M628.812 183.5C628.812 177.287 635.108 172.25 642.875 172.25C650.642 172.25 656.938 177.287 656.938 183.5C656.938 189.713 650.642 194.75 642.875 194.75C635.108 194.75 628.812 189.713 628.812 183.5Z" fill="black"/>
<path d="M628.812 198.5C628.812 192.287 635.108 187.25 642.875 187.25C650.642 187.25 656.938 192.287 656.938 198.5C656.938 204.713 650.642 209.75 642.875 209.75C635.108 209.75 628.812 204.713 628.812 198.5Z" fill="black"/>
<path d="M647.562 93.5C647.562 87.2868 653.858 82.25 661.625 82.25C669.392 82.25 675.688 87.2868 675.688 93.5C675.688 99.7132 669.392 104.75 661.625 104.75C653.858 104.75 647.562 99.7132 647.562 93.5Z" fill="black"/>
<path d="M647.562 108.5C647.562 102.287 653.858 97.25 661.625 97.25C669.392 97.25 675.688 102.287 675.688 108.5C675.688 114.713 669.392 119.75 661.625 119.75C653.858 119.75 647.562 114.713 647.562 108.5Z" fill="black"/>
<path d="M647.562 168.5C647.562 162.287 653.858 157.25 661.625 157.25C669.392 157.25 675.688 162.287 675.688 168.5C675.688 174.713 669.392 179.75 661.625 179.75C653.858 179.75 647.562 174.713 647.562 168.5Z" fill="black"/>
<path d="M647.562 198.5C647.562 192.287 653.858 187.25 661.625 187.25C669.392 187.25 675.688 192.287 675.688 198.5C675.688 204.713 669.392 209.75 661.625 209.75C653.858 209.75 647.562 204.713 647.562 198.5Z" fill="black"/>
<path d="M666.312 108.5C666.312 102.287 672.608 97.25 680.375 97.25C688.142 97.25 694.438 102.287 694.438 108.5C694.438 114.713 688.142 119.75 680.375 119.75C672.608 119.75 666.312 114.713 666.312 108.5Z" fill="black"/>
<path d="M666.312 123.5C666.312 117.287 672.608 112.25 680.375 112.25C688.142 112.25 694.438 117.287 694.438 123.5C694.438 129.713 688.142 134.75 680.375 134.75C672.608 134.75 666.312 129.713 666.312 123.5Z" fill="black"/>
<path d="M666.312 153.5C666.312 147.287 672.608 142.25 680.375 142.25C688.142 142.25 694.438 147.287 694.438 153.5C694.438 159.713 688.142 164.75 680.375 164.75C672.608 164.75 666.312 159.713 666.312 153.5Z" fill="black"/>
<path d="M666.312 198.5C666.312 192.287 672.608 187.25 680.375 187.25C688.142 187.25 694.438 192.287 694.438 198.5C694.438 204.713 688.142 209.75 680.375 209.75C672.608 209.75 666.312 204.713 666.312 198.5Z" fill="black"/>
<path d="M666.312 213.5C666.312 207.287 672.608 202.25 680.375 202.25C688.142 202.25 694.438 207.287 694.438 213.5C694.438 219.713 688.142 224.75 680.375 224.75C672.608 224.75 666.312 219.713 666.312 213.5Z" fill="black"/>
<path d="M685.062 123.5C685.062 117.287 691.358 112.25 699.125 112.25C706.892 112.25 713.188 117.287 713.188 123.5C713.188 129.713 706.892 134.75 699.125 134.75C691.358 134.75 685.062 129.713 685.062 123.5Z" fill="black"/>
<path d="M685.062 138.5C685.062 132.287 691.358 127.25 699.125 127.25C706.892 127.25 713.188 132.287 713.188 138.5C713.188 144.713 706.892 149.75 699.125 149.75C691.358 149.75 685.062 144.713 685.062 138.5Z" fill="black"/>
<path d="M685.062 153.5C685.062 147.287 691.358 142.25 699.125 142.25C706.892 142.25 713.188 147.287 713.188 153.5C713.188 159.713 706.892 164.75 699.125 164.75C691.358 164.75 685.062 159.713 685.062 153.5Z" fill="black"/>
<path d="M685.062 213.5C685.062 207.287 691.358 202.25 699.125 202.25C706.892 202.25 713.188 207.287 713.188 213.5C713.188 219.713 706.892 224.75 699.125 224.75C691.358 224.75 685.062 219.713 685.062 213.5Z" fill="black"/>
<path d="M685.062 228.5C685.062 222.287 691.358 217.25 699.125 217.25C706.892 217.25 713.188 222.287 713.188 228.5C713.188 234.713 706.892 239.75 699.125 239.75C691.358 239.75 685.062 234.713 685.062 228.5Z" fill="black"/>
<path d="M685.062 243.5C685.062 237.287 691.358 232.25 699.125 232.25C706.892 232.25 713.188 237.287 713.188 243.5C713.188 249.713 706.892 254.75 699.125 254.75C691.358 254.75 685.062 249.713 685.062 243.5Z" fill="black"/>
<path d="M685.062 258.5C685.062 252.287 691.358 247.25 699.125 247.25C706.892 247.25 713.188 252.287 713.188 258.5C713.188 264.713 706.892 269.75 699.125 269.75C691.358 269.75 685.062 264.713 685.062 258.5Z" fill="black"/>
<path d="M703.812 243.5C703.812 237.287 710.108 232.25 717.875 232.25C725.642 232.25 731.938 237.287 731.938 243.5C731.938 249.713 725.642 254.75 717.875 254.75C710.108 254.75 703.812 249.713 703.812 243.5Z" fill="black"/>
<path d="M703.812 258.5C703.812 252.287 710.108 247.25 717.875 247.25C725.642 247.25 731.938 252.287 731.938 258.5C731.938 264.713 725.642 269.75 717.875 269.75C710.108 269.75 703.812 264.713 703.812 258.5Z" fill="black"/>
</g>
<g clip-path="url(#clip4_39_1934)">
<path d="M14.0625 486.5C14.0625 480.287 20.3585 475.25 28.125 475.25C35.8915 475.25 42.1875 480.287 42.1875 486.5C42.1875 492.713 35.8915 497.75 28.125 497.75C20.3585 497.75 14.0625 492.713 14.0625 486.5Z" fill="white"/>
<path d="M14.0625 501.5C14.0625 495.287 20.3585 490.25 28.125 490.25C35.8915 490.25 42.1875 495.287 42.1875 501.5C42.1875 507.713 35.8915 512.75 28.125 512.75C20.3585 512.75 14.0625 507.713 14.0625 501.5Z" fill="white"/>
<path d="M14.0625 516.5C14.0625 510.287 20.3585 505.25 28.125 505.25C35.8915 505.25 42.1875 510.287 42.1875 516.5C42.1875 522.713 35.8915 527.75 28.125 527.75C20.3585 527.75 14.0625 522.713 14.0625 516.5Z" fill="white"/>
<path d="M32.8125 516.5C32.8125 510.287 39.1085 505.25 46.875 505.25C54.6415 505.25 60.9375 510.287 60.9375 516.5C60.9375 522.713 54.6415 527.75 46.875 527.75C39.1085 527.75 32.8125 522.713 32.8125 516.5Z" fill="white"/>
<path d="M51.5625 501.5C51.5625 495.287 57.8585 490.25 65.625 490.25C73.3915 490.25 79.6875 495.287 79.6875 501.5C79.6875 507.713 73.3915 512.75 65.625 512.75C57.8585 512.75 51.5625 507.713 51.5625 501.5Z" fill="white"/>
<path d="M51.5625 516.5C51.5625 510.287 57.8585 505.25 65.625 505.25C73.3915 505.25 79.6875 510.287 79.6875 516.5C79.6875 522.713 73.3915 527.75 65.625 527.75C57.8585 527.75 51.5625 522.713 51.5625 516.5Z" fill="white"/>
<path d="M70.3125 501.5C70.3125 495.287 76.6085 490.25 84.375 490.25C92.1415 490.25 98.4375 495.287 98.4375 501.5C98.4375 507.713 92.1415 512.75 84.375 512.75C76.6085 512.75 70.3125 507.713 70.3125 501.5Z" fill="white"/>
<path d="M70.3125 516.5C70.3125 510.287 76.6085 505.25 84.375 505.25C92.1415 505.25 98.4375 510.287 98.4375 516.5C98.4375 522.713 92.1415 527.75 84.375 527.75C76.6085 527.75 70.3125 522.713 70.3125 516.5Z" fill="white"/>
<path d="M89.0625 501.5C89.0625 495.287 95.3585 490.25 103.125 490.25C110.892 490.25 117.188 495.287 117.188 501.5C117.188 507.713 110.892 512.75 103.125 512.75C95.3585 512.75 89.0625 507.713 89.0625 501.5Z" fill="white"/>
<path d="M89.0625 516.5C89.0625 510.287 95.3585 505.25 103.125 505.25C110.892 505.25 117.188 510.287 117.188 516.5C117.188 522.713 110.892 527.75 103.125 527.75C95.3585 527.75 89.0625 522.713 89.0625 516.5Z" fill="white"/>
<path d="M89.0625 531.5C89.0625 525.287 95.3585 520.25 103.125 520.25C110.892 520.25 117.188 525.287 117.188 531.5C117.188 537.713 110.892 542.75 103.125 542.75C95.3585 542.75 89.0625 537.713 89.0625 531.5Z" fill="white"/>
<path d="M89.0625 546.5C89.0625 540.287 95.3585 535.25 103.125 535.25C110.892 535.25 117.188 540.287 117.188 546.5C117.188 552.713 110.892 557.75 103.125 557.75C95.3585 557.75 89.0625 552.713 89.0625 546.5Z" fill="white"/>
<path d="M89.0625 561.5C89.0625 555.287 95.3585 550.25 103.125 550.25C110.892 550.25 117.188 555.287 117.188 561.5C117.188 567.713 110.892 572.75 103.125 572.75C95.3585 572.75 89.0625 567.713 89.0625 561.5Z" fill="white"/>
<path d="M89.0625 591.5C89.0625 585.287 95.3585 580.25 103.125 580.25C110.892 580.25 117.188 585.287 117.188 591.5C117.188 597.713 110.892 602.75 103.125 602.75C95.3585 602.75 89.0625 597.713 89.0625 591.5Z" fill="white"/>
<path d="M89.0625 606.5C89.0625 600.287 95.3585 595.25 103.125 595.25C110.892 595.25 117.188 600.287 117.188 606.5C117.188 612.713 110.892 617.75 103.125 617.75C95.3585 617.75 89.0625 612.713 89.0625 606.5Z" fill="white"/>
<path d="M89.0625 621.5C89.0625 615.287 95.3585 610.25 103.125 610.25C110.892 610.25 117.188 615.287 117.188 621.5C117.188 627.713 110.892 632.75 103.125 632.75C95.3585 632.75 89.0625 627.713 89.0625 621.5Z" fill="white"/>
<path d="M89.0625 636.5C89.0625 630.287 95.3585 625.25 103.125 625.25C110.892 625.25 117.188 630.287 117.188 636.5C117.188 642.713 110.892 647.75 103.125 647.75C95.3585 647.75 89.0625 642.713 89.0625 636.5Z" fill="white"/>
<path d="M107.812 501.5C107.812 495.287 114.108 490.25 121.875 490.25C129.642 490.25 135.938 495.287 135.938 501.5C135.938 507.713 129.642 512.75 121.875 512.75C114.108 512.75 107.812 507.713 107.812 501.5Z" fill="white"/>
<path d="M107.812 516.5C107.812 510.287 114.108 505.25 121.875 505.25C129.642 505.25 135.938 510.287 135.938 516.5C135.938 522.713 129.642 527.75 121.875 527.75C114.108 527.75 107.812 522.713 107.812 516.5Z" fill="white"/>
<path d="M107.812 531.5C107.812 525.287 114.108 520.25 121.875 520.25C129.642 520.25 135.938 525.287 135.938 531.5C135.938 537.713 129.642 542.75 121.875 542.75C114.108 542.75 107.812 537.713 107.812 531.5Z" fill="white"/>
<path d="M107.812 546.5C107.812 540.287 114.108 535.25 121.875 535.25C129.642 535.25 135.938 540.287 135.938 546.5C135.938 552.713 129.642 557.75 121.875 557.75C114.108 557.75 107.812 552.713 107.812 546.5Z" fill="white"/>
<path d="M107.812 561.5C107.812 555.287 114.108 550.25 121.875 550.25C129.642 550.25 135.938 555.287 135.938 561.5C135.938 567.713 129.642 572.75 121.875 572.75C114.108 572.75 107.812 567.713 107.812 561.5Z" fill="white"/>
<path d="M107.812 576.5C107.812 570.287 114.108 565.25 121.875 565.25C129.642 565.25 135.938 570.287 135.938 576.5C135.938 582.713 129.642 587.75 121.875 587.75C114.108 587.75 107.812 582.713 107.812 576.5Z" fill="white"/>
<path d="M107.812 591.5C107.812 585.287 114.108 580.25 121.875 580.25C129.642 580.25 135.938 585.287 135.938 591.5C135.938 597.713 129.642 602.75 121.875 602.75C114.108 602.75 107.812 597.713 107.812 591.5Z" fill="white"/>
<path d="M107.812 606.5C107.812 600.287 114.108 595.25 121.875 595.25C129.642 595.25 135.938 600.287 135.938 606.5C135.938 612.713 129.642 617.75 121.875 617.75C114.108 617.75 107.812 612.713 107.812 606.5Z" fill="white"/>
<path d="M107.812 621.5C107.812 615.287 114.108 610.25 121.875 610.25C129.642 610.25 135.938 615.287 135.938 621.5C135.938 627.713 129.642 632.75 121.875 632.75C114.108 632.75 107.812 627.713 107.812 621.5Z" fill="white"/>
<path d="M107.812 636.5C107.812 630.287 114.108 625.25 121.875 625.25C129.642 625.25 135.938 630.287 135.938 636.5C135.938 642.713 129.642 647.75 121.875 647.75C114.108 647.75 107.812 642.713 107.812 636.5Z" fill="white"/>
<path d="M107.812 651.5C107.812 645.287 114.108 640.25 121.875 640.25C129.642 640.25 135.938 645.287 135.938 651.5C135.938 657.713 129.642 662.75 121.875 662.75C114.108 662.75 107.812 657.713 107.812 651.5Z" fill="white"/>
<path d="M107.812 666.5C107.812 660.287 114.108 655.25 121.875 655.25C129.642 655.25 135.938 660.287 135.938 666.5C135.938 672.713 129.642 677.75 121.875 677.75C114.108 677.75 107.812 672.713 107.812 666.5Z" fill="white"/>
<path d="M107.812 681.5C107.812 675.287 114.108 670.25 121.875 670.25C129.642 670.25 135.938 675.287 135.938 681.5C135.938 687.713 129.642 692.75 121.875 692.75C114.108 692.75 107.812 687.713 107.812 681.5Z" fill="white"/>
<path d="M107.812 696.5C107.812 690.287 114.108 685.25 121.875 685.25C129.642 685.25 135.938 690.287 135.938 696.5C135.938 702.713 129.642 707.75 121.875 707.75C114.108 707.75 107.812 702.713 107.812 696.5Z" fill="white"/>
<path d="M126.562 501.5C126.562 495.287 132.858 490.25 140.625 490.25C148.392 490.25 154.688 495.287 154.688 501.5C154.688 507.713 148.392 512.75 140.625 512.75C132.858 512.75 126.562 507.713 126.562 501.5Z" fill="white"/>
<path d="M126.562 516.5C126.562 510.287 132.858 505.25 140.625 505.25C148.392 505.25 154.688 510.287 154.688 516.5C154.688 522.713 148.392 527.75 140.625 527.75C132.858 527.75 126.562 522.713 126.562 516.5Z" fill="white"/>
<path d="M126.562 636.5C126.562 630.287 132.858 625.25 140.625 625.25C148.392 625.25 154.688 630.287 154.688 636.5C154.688 642.713 148.392 647.75 140.625 647.75C132.858 647.75 126.562 642.713 126.562 636.5Z" fill="white"/>
<path d="M126.562 651.5C126.562 645.287 132.858 640.25 140.625 640.25C148.392 640.25 154.688 645.287 154.688 651.5C154.688 657.713 148.392 662.75 140.625 662.75C132.858 662.75 126.562 657.713 126.562 651.5Z" fill="white"/>
<path d="M126.562 681.5C126.562 675.287 132.858 670.25 140.625 670.25C148.392 670.25 154.688 675.287 154.688 681.5C154.688 687.713 148.392 692.75 140.625 692.75C132.858 692.75 126.562 687.713 126.562 681.5Z" fill="white"/>
<path d="M126.562 696.5C126.562 690.287 132.858 685.25 140.625 685.25C148.392 685.25 154.688 690.287 154.688 696.5C154.688 702.713 148.392 707.75 140.625 707.75C132.858 707.75 126.562 702.713 126.562 696.5Z" fill="white"/>
<path d="M145.312 501.5C145.312 495.287 151.608 490.25 159.375 490.25C167.142 490.25 173.438 495.287 173.438 501.5C173.438 507.713 167.142 512.75 159.375 512.75C151.608 512.75 145.312 507.713 145.312 501.5Z" fill="white"/>
<path d="M145.312 516.5C145.312 510.287 151.608 505.25 159.375 505.25C167.142 505.25 173.438 510.287 173.438 516.5C173.438 522.713 167.142 527.75 159.375 527.75C151.608 527.75 145.312 522.713 145.312 516.5Z" fill="white"/>
<path d="M164.062 501.5C164.062 495.287 170.358 490.25 178.125 490.25C185.892 490.25 192.188 495.287 192.188 501.5C192.188 507.713 185.892 512.75 178.125 512.75C170.358 512.75 164.062 507.713 164.062 501.5Z" fill="white"/>
<path d="M182.812 501.5C182.812 495.287 189.108 490.25 196.875 490.25C204.642 490.25 210.938 495.287 210.938 501.5C210.938 507.713 204.642 512.75 196.875 512.75C189.108 512.75 182.812 507.713 182.812 501.5Z" fill="white"/>
<path d="M182.812 516.5C182.812 510.287 189.108 505.25 196.875 505.25C204.642 505.25 210.938 510.287 210.938 516.5C210.938 522.713 204.642 527.75 196.875 527.75C189.108 527.75 182.812 522.713 182.812 516.5Z" fill="white"/>
</g>
<g clip-path="url(#clip5_39_1934)">
<rect width="225" height="300" transform="translate(271 438)" fill="#FF0000"/>
<path d="M360.062 490.5C360.062 484.287 366.358 479.25 374.125 479.25C381.892 479.25 388.188 484.287 388.188 490.5C388.188 496.713 381.892 501.75 374.125 501.75C366.358 501.75 360.062 496.713 360.062 490.5Z" fill="white"/>
<path d="M360.062 505.5C360.062 499.287 366.358 494.25 374.125 494.25C381.892 494.25 388.188 499.287 388.188 505.5C388.188 511.713 381.892 516.75 374.125 516.75C366.358 516.75 360.062 511.713 360.062 505.5Z" fill="white"/>
<path d="M360.062 565.5C360.062 559.287 366.358 554.25 374.125 554.25C381.892 554.25 388.188 559.287 388.188 565.5C388.188 571.713 381.892 576.75 374.125 576.75C366.358 576.75 360.062 571.713 360.062 565.5Z" fill="white"/>
<path d="M360.062 580.5C360.062 574.287 366.358 569.25 374.125 569.25C381.892 569.25 388.188 574.287 388.188 580.5C388.188 586.713 381.892 591.75 374.125 591.75C366.358 591.75 360.062 586.713 360.062 580.5Z" fill="white"/>
<path d="M360.062 595.5C360.062 589.287 366.358 584.25 374.125 584.25C381.892 584.25 388.188 589.287 388.188 595.5C388.188 601.713 381.892 606.75 374.125 606.75C366.358 606.75 360.062 601.713 360.062 595.5Z" fill="white"/>
<path d="M360.062 610.5C360.062 604.287 366.358 599.25 374.125 599.25C381.892 599.25 388.188 604.287 388.188 610.5C388.188 616.713 381.892 621.75 374.125 621.75C366.358 621.75 360.062 616.713 360.062 610.5Z" fill="white"/>
<path d="M360.062 640.5C360.062 634.287 366.358 629.25 374.125 629.25C381.892 629.25 388.188 634.287 388.188 640.5C388.188 646.713 381.892 651.75 374.125 651.75C366.358 651.75 360.062 646.713 360.062 640.5Z" fill="white"/>
<path d="M360.062 655.5C360.062 649.287 366.358 644.25 374.125 644.25C381.892 644.25 388.188 649.287 388.188 655.5C388.188 661.713 381.892 666.75 374.125 666.75C366.358 666.75 360.062 661.713 360.062 655.5Z" fill="white"/>
<path d="M360.062 670.5C360.062 664.287 366.358 659.25 374.125 659.25C381.892 659.25 388.188 664.287 388.188 670.5C388.188 676.713 381.892 681.75 374.125 681.75C366.358 681.75 360.062 676.713 360.062 670.5Z" fill="white"/>
<path d="M360.062 685.5C360.062 679.287 366.358 674.25 374.125 674.25C381.892 674.25 388.188 679.287 388.188 685.5C388.188 691.713 381.892 696.75 374.125 696.75C366.358 696.75 360.062 691.713 360.062 685.5Z" fill="white"/>
<path d="M360.062 700.5C360.062 694.287 366.358 689.25 374.125 689.25C381.892 689.25 388.188 694.287 388.188 700.5C388.188 706.713 381.892 711.75 374.125 711.75C366.358 711.75 360.062 706.713 360.062 700.5Z" fill="white"/>
<path d="M360.062 715.5C360.062 709.287 366.358 704.25 374.125 704.25C381.892 704.25 388.188 709.287 388.188 715.5C388.188 721.713 381.892 726.75 374.125 726.75C366.358 726.75 360.062 721.713 360.062 715.5Z" fill="white"/>
<path d="M360.062 730.5C360.062 724.287 366.358 719.25 374.125 719.25C381.892 719.25 388.188 724.287 388.188 730.5C388.188 736.713 381.892 741.75 374.125 741.75C366.358 741.75 360.062 736.713 360.062 730.5Z" fill="white"/>
<path d="M378.812 505.5C378.812 499.287 385.108 494.25 392.875 494.25C400.642 494.25 406.938 499.287 406.938 505.5C406.938 511.713 400.642 516.75 392.875 516.75C385.108 516.75 378.812 511.713 378.812 505.5Z" fill="white"/>
<path d="M378.812 565.5C378.812 559.287 385.108 554.25 392.875 554.25C400.642 554.25 406.938 559.287 406.938 565.5C406.938 571.713 400.642 576.75 392.875 576.75C385.108 576.75 378.812 571.713 378.812 565.5Z" fill="white"/>
<path d="M378.812 580.5C378.812 574.287 385.108 569.25 392.875 569.25C400.642 569.25 406.938 574.287 406.938 580.5C406.938 586.713 400.642 591.75 392.875 591.75C385.108 591.75 378.812 586.713 378.812 580.5Z" fill="white"/>
<path d="M378.812 595.5C378.812 589.287 385.108 584.25 392.875 584.25C400.642 584.25 406.938 589.287 406.938 595.5C406.938 601.713 400.642 606.75 392.875 606.75C385.108 606.75 378.812 601.713 378.812 595.5Z" fill="white"/>
<path d="M378.812 610.5C378.812 604.287 385.108 599.25 392.875 599.25C400.642 599.25 406.938 604.287 406.938 610.5C406.938 616.713 400.642 621.75 392.875 621.75C385.108 621.75 378.812 616.713 378.812 610.5Z" fill="white"/>
<path d="M378.812 625.5C378.812 619.287 385.108 614.25 392.875 614.25C400.642 614.25 406.938 619.287 406.938 625.5C406.938 631.713 400.642 636.75 392.875 636.75C385.108 636.75 378.812 631.713 378.812 625.5Z" fill="white"/>
<path d="M378.812 640.5C378.812 634.287 385.108 629.25 392.875 629.25C400.642 629.25 406.938 634.287 406.938 640.5C406.938 646.713 400.642 651.75 392.875 651.75C385.108 651.75 378.812 646.713 378.812 640.5Z" fill="white"/>
<path d="M378.812 655.5C378.812 649.287 385.108 644.25 392.875 644.25C400.642 644.25 406.938 649.287 406.938 655.5C406.938 661.713 400.642 666.75 392.875 666.75C385.108 666.75 378.812 661.713 378.812 655.5Z" fill="white"/>
<path d="M378.812 670.5C378.812 664.287 385.108 659.25 392.875 659.25C400.642 659.25 406.938 664.287 406.938 670.5C406.938 676.713 400.642 681.75 392.875 681.75C385.108 681.75 378.812 676.713 378.812 670.5Z" fill="white"/>
<path d="M378.812 700.5C378.812 694.287 385.108 689.25 392.875 689.25C400.642 689.25 406.938 694.287 406.938 700.5C406.938 706.713 400.642 711.75 392.875 711.75C385.108 711.75 378.812 706.713 378.812 700.5Z" fill="white"/>
<path d="M378.812 715.5C378.812 709.287 385.108 704.25 392.875 704.25C400.642 704.25 406.938 709.287 406.938 715.5C406.938 721.713 400.642 726.75 392.875 726.75C385.108 726.75 378.812 721.713 378.812 715.5Z" fill="white"/>
</g>
<g clip-path="url(#clip6_39_1934)">
<rect width="225" height="300" transform="translate(784 434)" fill="#FF0000"/>
<path d="M835.562 456.5C835.562 450.287 841.858 445.25 849.625 445.25C857.392 445.25 863.688 450.287 863.688 456.5C863.688 462.713 857.392 467.75 849.625 467.75C841.858 467.75 835.562 462.713 835.562 456.5Z" fill="white"/>
<path d="M835.562 471.5C835.562 465.287 841.858 460.25 849.625 460.25C857.392 460.25 863.688 465.287 863.688 471.5C863.688 477.713 857.392 482.75 849.625 482.75C841.858 482.75 835.562 477.713 835.562 471.5Z" fill="white"/>
<path d="M835.562 486.5C835.562 480.287 841.858 475.25 849.625 475.25C857.392 475.25 863.688 480.287 863.688 486.5C863.688 492.713 857.392 497.75 849.625 497.75C841.858 497.75 835.562 492.713 835.562 486.5Z" fill="white"/>
<path d="M835.562 501.5C835.562 495.287 841.858 490.25 849.625 490.25C857.392 490.25 863.688 495.287 863.688 501.5C863.688 507.713 857.392 512.75 849.625 512.75C841.858 512.75 835.562 507.713 835.562 501.5Z" fill="white"/>
<path d="M835.562 516.5C835.562 510.287 841.858 505.25 849.625 505.25C857.392 505.25 863.688 510.287 863.688 516.5C863.688 522.713 857.392 527.75 849.625 527.75C841.858 527.75 835.562 522.713 835.562 516.5Z" fill="white"/>
<path d="M835.562 546.5C835.562 540.287 841.858 535.25 849.625 535.25C857.392 535.25 863.688 540.287 863.688 546.5C863.688 552.713 857.392 557.75 849.625 557.75C841.858 557.75 835.562 552.713 835.562 546.5Z" fill="white"/>
<path d="M835.562 561.5C835.562 555.287 841.858 550.25 849.625 550.25C857.392 550.25 863.688 555.287 863.688 561.5C863.688 567.713 857.392 572.75 849.625 572.75C841.858 572.75 835.562 567.713 835.562 561.5Z" fill="white"/>
<path d="M835.562 576.5C835.562 570.287 841.858 565.25 849.625 565.25C857.392 565.25 863.688 570.287 863.688 576.5C863.688 582.713 857.392 587.75 849.625 587.75C841.858 587.75 835.562 582.713 835.562 576.5Z" fill="white"/>
<path d="M835.562 591.5C835.562 585.287 841.858 580.25 849.625 580.25C857.392 580.25 863.688 585.287 863.688 591.5C863.688 597.713 857.392 602.75 849.625 602.75C841.858 602.75 835.562 597.713 835.562 591.5Z" fill="white"/>
<path d="M835.562 606.5C835.562 600.287 841.858 595.25 849.625 595.25C857.392 595.25 863.688 600.287 863.688 606.5C863.688 612.713 857.392 617.75 849.625 617.75C841.858 617.75 835.562 612.713 835.562 606.5Z" fill="white"/>
<path d="M835.562 636.5C835.562 630.287 841.858 625.25 849.625 625.25C857.392 625.25 863.688 630.287 863.688 636.5C863.688 642.713 857.392 647.75 849.625 647.75C841.858 647.75 835.562 642.713 835.562 636.5Z" fill="white"/>
<path d="M835.562 651.5C835.562 645.287 841.858 640.25 849.625 640.25C857.392 640.25 863.688 645.287 863.688 651.5C863.688 657.713 857.392 662.75 849.625 662.75C841.858 662.75 835.562 657.713 835.562 651.5Z" fill="white"/>
<path d="M835.562 666.5C835.562 660.287 841.858 655.25 849.625 655.25C857.392 655.25 863.688 660.287 863.688 666.5C863.688 672.713 857.392 677.75 849.625 677.75C841.858 677.75 835.562 672.713 835.562 666.5Z" fill="white"/>
<path d="M835.562 681.5C835.562 675.287 841.858 670.25 849.625 670.25C857.392 670.25 863.688 675.287 863.688 681.5C863.688 687.713 857.392 692.75 849.625 692.75C841.858 692.75 835.562 687.713 835.562 681.5Z" fill="white"/>
<path d="M854.312 456.5C854.312 450.287 860.608 445.25 868.375 445.25C876.142 445.25 882.438 450.287 882.438 456.5C882.438 462.713 876.142 467.75 868.375 467.75C860.608 467.75 854.312 462.713 854.312 456.5Z" fill="white"/>
<path d="M854.312 471.5C854.312 465.287 860.608 460.25 868.375 460.25C876.142 460.25 882.438 465.287 882.438 471.5C882.438 477.713 876.142 482.75 868.375 482.75C860.608 482.75 854.312 477.713 854.312 471.5Z" fill="white"/>
<path d="M854.312 486.5C854.312 480.287 860.608 475.25 868.375 475.25C876.142 475.25 882.438 480.287 882.438 486.5C882.438 492.713 876.142 497.75 868.375 497.75C860.608 497.75 854.312 492.713 854.312 486.5Z" fill="white"/>
<path d="M854.312 516.5C854.312 510.287 860.608 505.25 868.375 505.25C876.142 505.25 882.438 510.287 882.438 516.5C882.438 522.713 876.142 527.75 868.375 527.75C860.608 527.75 854.312 522.713 854.312 516.5Z" fill="white"/>
<path d="M854.312 531.5C854.312 525.287 860.608 520.25 868.375 520.25C876.142 520.25 882.438 525.287 882.438 531.5C882.438 537.713 876.142 542.75 868.375 542.75C860.608 542.75 854.312 537.713 854.312 531.5Z" fill="white"/>
<path d="M854.312 546.5C854.312 540.287 860.608 535.25 868.375 535.25C876.142 535.25 882.438 540.287 882.438 546.5C882.438 552.713 876.142 557.75 868.375 557.75C860.608 557.75 854.312 552.713 854.312 546.5Z" fill="white"/>
<path d="M854.312 561.5C854.312 555.287 860.608 550.25 868.375 550.25C876.142 550.25 882.438 555.287 882.438 561.5C882.438 567.713 876.142 572.75 868.375 572.75C860.608 572.75 854.312 567.713 854.312 561.5Z" fill="white"/>
<path d="M854.312 576.5C854.312 570.287 860.608 565.25 868.375 565.25C876.142 565.25 882.438 570.287 882.438 576.5C882.438 582.713 876.142 587.75 868.375 587.75C860.608 587.75 854.312 582.713 854.312 576.5Z" fill="white"/>
<path d="M854.312 591.5C854.312 585.287 860.608 580.25 868.375 580.25C876.142 580.25 882.438 585.287 882.438 591.5C882.438 597.713 876.142 602.75 868.375 602.75C860.608 602.75 854.312 597.713 854.312 591.5Z" fill="white"/>
<path d="M854.312 606.5C854.312 600.287 860.608 595.25 868.375 595.25C876.142 595.25 882.438 600.287 882.438 606.5C882.438 612.713 876.142 617.75 868.375 617.75C860.608 617.75 854.312 612.713 854.312 606.5Z" fill="white"/>
<path d="M854.312 621.5C854.312 615.287 860.608 610.25 868.375 610.25C876.142 610.25 882.438 615.287 882.438 621.5C882.438 627.713 876.142 632.75 868.375 632.75C860.608 632.75 854.312 627.713 854.312 621.5Z" fill="white"/>
<path d="M854.312 636.5C854.312 630.287 860.608 625.25 868.375 625.25C876.142 625.25 882.438 630.287 882.438 636.5C882.438 642.713 876.142 647.75 868.375 647.75C860.608 647.75 854.312 642.713 854.312 636.5Z" fill="white"/>
<path d="M854.312 651.5C854.312 645.287 860.608 640.25 868.375 640.25C876.142 640.25 882.438 645.287 882.438 651.5C882.438 657.713 876.142 662.75 868.375 662.75C860.608 662.75 854.312 657.713 854.312 651.5Z" fill="white"/>
<path d="M854.312 666.5C854.312 660.287 860.608 655.25 868.375 655.25C876.142 655.25 882.438 660.287 882.438 666.5C882.438 672.713 876.142 677.75 868.375 677.75C860.608 677.75 854.312 672.713 854.312 666.5Z" fill="white"/>
<path d="M854.312 681.5C854.312 675.287 860.608 670.25 868.375 670.25C876.142 670.25 882.438 675.287 882.438 681.5C882.438 687.713 876.142 692.75 868.375 692.75C860.608 692.75 854.312 687.713 854.312 681.5Z" fill="white"/>
<path d="M854.312 696.5C854.312 690.287 860.608 685.25 868.375 685.25C876.142 685.25 882.438 690.287 882.438 696.5C882.438 702.713 876.142 707.75 868.375 707.75C860.608 707.75 854.312 702.713 854.312 696.5Z" fill="white"/>
<path d="M873.062 471.5C873.062 465.287 879.358 460.25 887.125 460.25C894.892 460.25 901.188 465.287 901.188 471.5C901.188 477.713 894.892 482.75 887.125 482.75C879.358 482.75 873.062 477.713 873.062 471.5Z" fill="white"/>
<path d="M873.062 576.5C873.062 570.287 879.358 565.25 887.125 565.25C894.892 565.25 901.188 570.287 901.188 576.5C901.188 582.713 894.892 587.75 887.125 587.75C879.358 587.75 873.062 582.713 873.062 576.5Z" fill="white"/>
<path d="M873.062 591.5C873.062 585.287 879.358 580.25 887.125 580.25C894.892 580.25 901.188 585.287 901.188 591.5C901.188 597.713 894.892 602.75 887.125 602.75C879.358 602.75 873.062 597.713 873.062 591.5Z" fill="white"/>
<path d="M873.062 636.5C873.062 630.287 879.358 625.25 887.125 625.25C894.892 625.25 901.188 630.287 901.188 636.5C901.188 642.713 894.892 647.75 887.125 647.75C879.358 647.75 873.062 642.713 873.062 636.5Z" fill="white"/>
<path d="M873.062 696.5C873.062 690.287 879.358 685.25 887.125 685.25C894.892 685.25 901.188 690.287 901.188 696.5C901.188 702.713 894.892 707.75 887.125 707.75C879.358 707.75 873.062 702.713 873.062 696.5Z" fill="white"/>
<path d="M891.812 456.5C891.812 450.287 898.108 445.25 905.875 445.25C913.642 445.25 919.938 450.287 919.938 456.5C919.938 462.713 913.642 467.75 905.875 467.75C898.108 467.75 891.812 462.713 891.812 456.5Z" fill="white"/>
<path d="M891.812 471.5C891.812 465.287 898.108 460.25 905.875 460.25C913.642 460.25 919.938 465.287 919.938 471.5C919.938 477.713 913.642 482.75 905.875 482.75C898.108 482.75 891.812 477.713 891.812 471.5Z" fill="white"/>
<path d="M891.812 576.5C891.812 570.287 898.108 565.25 905.875 565.25C913.642 565.25 919.938 570.287 919.938 576.5C919.938 582.713 913.642 587.75 905.875 587.75C898.108 587.75 891.812 582.713 891.812 576.5Z" fill="white"/>
<path d="M891.812 591.5C891.812 585.287 898.108 580.25 905.875 580.25C913.642 580.25 919.938 585.287 919.938 591.5C919.938 597.713 913.642 602.75 905.875 602.75C898.108 602.75 891.812 597.713 891.812 591.5Z" fill="white"/>
<path d="M891.812 681.5C891.812 675.287 898.108 670.25 905.875 670.25C913.642 670.25 919.938 675.287 919.938 681.5C919.938 687.713 913.642 692.75 905.875 692.75C898.108 692.75 891.812 687.713 891.812 681.5Z" fill="white"/>
<path d="M891.812 696.5C891.812 690.287 898.108 685.25 905.875 685.25C913.642 685.25 919.938 690.287 919.938 696.5C919.938 702.713 913.642 707.75 905.875 707.75C898.108 707.75 891.812 702.713 891.812 696.5Z" fill="white"/>
<path d="M910.562 456.5C910.562 450.287 916.858 445.25 924.625 445.25C932.392 445.25 938.688 450.287 938.688 456.5C938.688 462.713 932.392 467.75 924.625 467.75C916.858 467.75 910.562 462.713 910.562 456.5Z" fill="white"/>
<path d="M910.562 471.5C910.562 465.287 916.858 460.25 924.625 460.25C932.392 460.25 938.688 465.287 938.688 471.5C938.688 477.713 932.392 482.75 924.625 482.75C916.858 482.75 910.562 477.713 910.562 471.5Z" fill="white"/>
<path d="M910.562 561.5C910.562 555.287 916.858 550.25 924.625 550.25C932.392 550.25 938.688 555.287 938.688 561.5C938.688 567.713 932.392 572.75 924.625 572.75C916.858 572.75 910.562 567.713 910.562 561.5Z" fill="white"/>
<path d="M910.562 576.5C910.562 570.287 916.858 565.25 924.625 565.25C932.392 565.25 938.688 570.287 938.688 576.5C938.688 582.713 932.392 587.75 924.625 587.75C916.858 587.75 910.562 582.713 910.562 576.5Z" fill="white"/>
<path d="M910.562 681.5C910.562 675.287 916.858 670.25 924.625 670.25C932.392 670.25 938.688 675.287 938.688 681.5C938.688 687.713 932.392 692.75 924.625 692.75C916.858 692.75 910.562 687.713 910.562 681.5Z" fill="white"/>
<path d="M910.562 696.5C910.562 690.287 916.858 685.25 924.625 685.25C932.392 685.25 938.688 690.287 938.688 696.5C938.688 702.713 932.392 707.75 924.625 707.75C916.858 707.75 910.562 702.713 910.562 696.5Z" fill="white"/>
<path d="M929.312 456.5C929.312 450.287 935.608 445.25 943.375 445.25C951.142 445.25 957.438 450.287 957.438 456.5C957.438 462.713 951.142 467.75 943.375 467.75C935.608 467.75 929.312 462.713 929.312 456.5Z" fill="white"/>
<path d="M929.312 471.5C929.312 465.287 935.608 460.25 943.375 460.25C951.142 460.25 957.438 465.287 957.438 471.5C957.438 477.713 951.142 482.75 943.375 482.75C935.608 482.75 929.312 477.713 929.312 471.5Z" fill="white"/>
<path d="M929.312 576.5C929.312 570.287 935.608 565.25 943.375 565.25C951.142 565.25 957.438 570.287 957.438 576.5C957.438 582.713 951.142 587.75 943.375 587.75C935.608 587.75 929.312 582.713 929.312 576.5Z" fill="white"/>
<path d="M929.312 591.5C929.312 585.287 935.608 580.25 943.375 580.25C951.142 580.25 957.438 585.287 957.438 591.5C957.438 597.713 951.142 602.75 943.375 602.75C935.608 602.75 929.312 597.713 929.312 591.5Z" fill="white"/>
<path d="M929.312 681.5C929.312 675.287 935.608 670.25 943.375 670.25C951.142 670.25 957.438 675.287 957.438 681.5C957.438 687.713 951.142 692.75 943.375 692.75C935.608 692.75 929.312 687.713 929.312 681.5Z" fill="white"/>
<path d="M929.312 696.5C929.312 690.287 935.608 685.25 943.375 685.25C951.142 685.25 957.438 690.287 957.438 696.5C957.438 702.713 951.142 707.75 943.375 707.75C935.608 707.75 929.312 702.713 929.312 696.5Z" fill="white"/>
<path d="M948.062 456.5C948.062 450.287 954.358 445.25 962.125 445.25C969.892 445.25 976.188 450.287 976.188 456.5C976.188 462.713 969.892 467.75 962.125 467.75C954.358 467.75 948.062 462.713 948.062 456.5Z" fill="white"/>
<path d="M948.062 471.5C948.062 465.287 954.358 460.25 962.125 460.25C969.892 460.25 976.188 465.287 976.188 471.5C976.188 477.713 969.892 482.75 962.125 482.75C954.358 482.75 948.062 477.713 948.062 471.5Z" fill="white"/>
<path d="M948.062 576.5C948.062 570.287 954.358 565.25 962.125 565.25C969.892 565.25 976.188 570.287 976.188 576.5C976.188 582.713 969.892 587.75 962.125 587.75C954.358 587.75 948.062 582.713 948.062 576.5Z" fill="white"/>
<path d="M948.062 591.5C948.062 585.287 954.358 580.25 962.125 580.25C969.892 580.25 976.188 585.287 976.188 591.5C976.188 597.713 969.892 602.75 962.125 602.75C954.358 602.75 948.062 597.713 948.062 591.5Z" fill="white"/>
<path d="M948.062 681.5C948.062 675.287 954.358 670.25 962.125 670.25C969.892 670.25 976.188 675.287 976.188 681.5C976.188 687.713 969.892 692.75 962.125 692.75C954.358 692.75 948.062 687.713 948.062 681.5Z" fill="white"/>
<path d="M948.062 696.5C948.062 690.287 954.358 685.25 962.125 685.25C969.892 685.25 976.188 690.287 976.188 696.5C976.188 702.713 969.892 707.75 962.125 707.75C954.358 707.75 948.062 702.713 948.062 696.5Z" fill="white"/>
<path d="M966.812 471.5C966.812 465.287 973.108 460.25 980.875 460.25C988.642 460.25 994.938 465.287 994.938 471.5C994.938 477.713 988.642 482.75 980.875 482.75C973.108 482.75 966.812 477.713 966.812 471.5Z" fill="white"/>
<path d="M966.812 576.5C966.812 570.287 973.108 565.25 980.875 565.25C988.642 565.25 994.938 570.287 994.938 576.5C994.938 582.713 988.642 587.75 980.875 587.75C973.108 587.75 966.812 582.713 966.812 576.5Z" fill="white"/>
<path d="M966.812 591.5C966.812 585.287 973.108 580.25 980.875 580.25C988.642 580.25 994.938 585.287 994.938 591.5C994.938 597.713 988.642 602.75 980.875 602.75C973.108 602.75 966.812 597.713 966.812 591.5Z" fill="white"/>
<path d="M966.812 681.5C966.812 675.287 973.108 670.25 980.875 670.25C988.642 670.25 994.938 675.287 994.938 681.5C994.938 687.713 988.642 692.75 980.875 692.75C973.108 692.75 966.812 687.713 966.812 681.5Z" fill="white"/>
<path d="M966.812 696.5C966.812 690.287 973.108 685.25 980.875 685.25C988.642 685.25 994.938 690.287 994.938 696.5C994.938 702.713 988.642 707.75 980.875 707.75C973.108 707.75 966.812 702.713 966.812 696.5Z" fill="white"/>
</g>
<g clip-path="url(#clip7_39_1934)">
<path d="M535.062 599.5C535.062 593.287 541.358 588.25 549.125 588.25C556.892 588.25 563.188 593.287 563.188 599.5C563.188 605.713 556.892 610.75 549.125 610.75C541.358 610.75 535.062 605.713 535.062 599.5Z" fill="white"/>
<path d="M535.062 614.5C535.062 608.287 541.358 603.25 549.125 603.25C556.892 603.25 563.188 608.287 563.188 614.5C563.188 620.713 556.892 625.75 549.125 625.75C541.358 625.75 535.062 620.713 535.062 614.5Z" fill="white"/>
<path d="M535.062 629.5C535.062 623.287 541.358 618.25 549.125 618.25C556.892 618.25 563.188 623.287 563.188 629.5C563.188 635.713 556.892 640.75 549.125 640.75C541.358 640.75 535.062 635.713 535.062 629.5Z" fill="white"/>
<path d="M535.062 644.5C535.062 638.287 541.358 633.25 549.125 633.25C556.892 633.25 563.188 638.287 563.188 644.5C563.188 650.713 556.892 655.75 549.125 655.75C541.358 655.75 535.062 650.713 535.062 644.5Z" fill="white"/>
<path d="M535.062 659.5C535.062 653.287 541.358 648.25 549.125 648.25C556.892 648.25 563.188 653.287 563.188 659.5C563.188 665.713 556.892 670.75 549.125 670.75C541.358 670.75 535.062 665.713 535.062 659.5Z" fill="white"/>
<path d="M535.062 674.5C535.062 668.287 541.358 663.25 549.125 663.25C556.892 663.25 563.188 668.287 563.188 674.5C563.188 680.713 556.892 685.75 549.125 685.75C541.358 685.75 535.062 680.713 535.062 674.5Z" fill="white"/>
<path d="M553.812 539.5C553.812 533.287 560.108 528.25 567.875 528.25C575.642 528.25 581.938 533.287 581.938 539.5C581.938 545.713 575.642 550.75 567.875 550.75C560.108 550.75 553.812 545.713 553.812 539.5Z" fill="white"/>
<path d="M553.812 554.5C553.812 548.287 560.108 543.25 567.875 543.25C575.642 543.25 581.938 548.287 581.938 554.5C581.938 560.713 575.642 565.75 567.875 565.75C560.108 565.75 553.812 560.713 553.812 554.5Z" fill="white"/>
<path d="M553.812 569.5C553.812 563.287 560.108 558.25 567.875 558.25C575.642 558.25 581.938 563.287 581.938 569.5C581.938 575.713 575.642 580.75 567.875 580.75C560.108 580.75 553.812 575.713 553.812 569.5Z" fill="white"/>
<path d="M553.812 584.5C553.812 578.287 560.108 573.25 567.875 573.25C575.642 573.25 581.938 578.287 581.938 584.5C581.938 590.713 575.642 595.75 567.875 595.75C560.108 595.75 553.812 590.713 553.812 584.5Z" fill="white"/>
<path d="M553.812 599.5C553.812 593.287 560.108 588.25 567.875 588.25C575.642 588.25 581.938 593.287 581.938 599.5C581.938 605.713 575.642 610.75 567.875 610.75C560.108 610.75 553.812 605.713 553.812 599.5Z" fill="white"/>
<path d="M572.562 524.5C572.562 518.287 578.858 513.25 586.625 513.25C594.392 513.25 600.688 518.287 600.688 524.5C600.688 530.713 594.392 535.75 586.625 535.75C578.858 535.75 572.562 530.713 572.562 524.5Z" fill="white"/>
<path d="M572.562 539.5C572.562 533.287 578.858 528.25 586.625 528.25C594.392 528.25 600.688 533.287 600.688 539.5C600.688 545.713 594.392 550.75 586.625 550.75C578.858 550.75 572.562 545.713 572.562 539.5Z" fill="white"/>
<path d="M591.312 494.5C591.312 488.287 597.608 483.25 605.375 483.25C613.142 483.25 619.438 488.287 619.438 494.5C619.438 500.713 613.142 505.75 605.375 505.75C597.608 505.75 591.312 500.713 591.312 494.5Z" fill="white"/>
<path d="M591.312 509.5C591.312 503.287 597.608 498.25 605.375 498.25C613.142 498.25 619.438 503.287 619.438 509.5C619.438 515.713 613.142 520.75 605.375 520.75C597.608 520.75 591.312 515.713 591.312 509.5Z" fill="white"/>
<path d="M591.312 524.5C591.312 518.287 597.608 513.25 605.375 513.25C613.142 513.25 619.438 518.287 619.438 524.5C619.438 530.713 613.142 535.75 605.375 535.75C597.608 535.75 591.312 530.713 591.312 524.5Z" fill="white"/>
<path d="M591.312 539.5C591.312 533.287 597.608 528.25 605.375 528.25C613.142 528.25 619.438 533.287 619.438 539.5C619.438 545.713 613.142 550.75 605.375 550.75C597.608 550.75 591.312 545.713 591.312 539.5Z" fill="white"/>
<path d="M610.062 509.5C610.062 503.287 616.358 498.25 624.125 498.25C631.892 498.25 638.188 503.287 638.188 509.5C638.188 515.713 631.892 520.75 624.125 520.75C616.358 520.75 610.062 515.713 610.062 509.5Z" fill="white"/>
<path d="M610.062 524.5C610.062 518.287 616.358 513.25 624.125 513.25C631.892 513.25 638.188 518.287 638.188 524.5C638.188 530.713 631.892 535.75 624.125 535.75C616.358 535.75 610.062 530.713 610.062 524.5Z" fill="white"/>
<path d="M610.062 539.5C610.062 533.287 616.358 528.25 624.125 528.25C631.892 528.25 638.188 533.287 638.188 539.5C638.188 545.713 631.892 550.75 624.125 550.75C616.358 550.75 610.062 545.713 610.062 539.5Z" fill="white"/>
<path d="M628.812 539.5C628.812 533.287 635.108 528.25 642.875 528.25C650.642 528.25 656.938 533.287 656.938 539.5C656.938 545.713 650.642 550.75 642.875 550.75C635.108 550.75 628.812 545.713 628.812 539.5Z" fill="white"/>
<path d="M628.812 554.5C628.812 548.287 635.108 543.25 642.875 543.25C650.642 543.25 656.938 548.287 656.938 554.5C656.938 560.713 650.642 565.75 642.875 565.75C635.108 565.75 628.812 560.713 628.812 554.5Z" fill="white"/>
<path d="M628.812 569.5C628.812 563.287 635.108 558.25 642.875 558.25C650.642 558.25 656.938 563.287 656.938 569.5C656.938 575.713 650.642 580.75 642.875 580.75C635.108 580.75 628.812 575.713 628.812 569.5Z" fill="white"/>
<path d="M628.812 584.5C628.812 578.287 635.108 573.25 642.875 573.25C650.642 573.25 656.938 578.287 656.938 584.5C656.938 590.713 650.642 595.75 642.875 595.75C635.108 595.75 628.812 590.713 628.812 584.5Z" fill="white"/>
<path d="M647.562 494.5C647.562 488.287 653.858 483.25 661.625 483.25C669.392 483.25 675.688 488.287 675.688 494.5C675.688 500.713 669.392 505.75 661.625 505.75C653.858 505.75 647.562 500.713 647.562 494.5Z" fill="white"/>
<path d="M647.562 509.5C647.562 503.287 653.858 498.25 661.625 498.25C669.392 498.25 675.688 503.287 675.688 509.5C675.688 515.713 669.392 520.75 661.625 520.75C653.858 520.75 647.562 515.713 647.562 509.5Z" fill="white"/>
<path d="M647.562 524.5C647.562 518.287 653.858 513.25 661.625 513.25C669.392 513.25 675.688 518.287 675.688 524.5C675.688 530.713 669.392 535.75 661.625 535.75C653.858 535.75 647.562 530.713 647.562 524.5Z" fill="white"/>
<path d="M647.562 539.5C647.562 533.287 653.858 528.25 661.625 528.25C669.392 528.25 675.688 533.287 675.688 539.5C675.688 545.713 669.392 550.75 661.625 550.75C653.858 550.75 647.562 545.713 647.562 539.5Z" fill="white"/>
<path d="M647.562 554.5C647.562 548.287 653.858 543.25 661.625 543.25C669.392 543.25 675.688 548.287 675.688 554.5C675.688 560.713 669.392 565.75 661.625 565.75C653.858 565.75 647.562 560.713 647.562 554.5Z" fill="white"/>
<path d="M647.562 584.5C647.562 578.287 653.858 573.25 661.625 573.25C669.392 573.25 675.688 578.287 675.688 584.5C675.688 590.713 669.392 595.75 661.625 595.75C653.858 595.75 647.562 590.713 647.562 584.5Z" fill="white"/>
<path d="M666.312 479.5C666.312 473.287 672.608 468.25 680.375 468.25C688.142 468.25 694.438 473.287 694.438 479.5C694.438 485.713 688.142 490.75 680.375 490.75C672.608 490.75 666.312 485.713 666.312 479.5Z" fill="white"/>
<path d="M666.312 494.5C666.312 488.287 672.608 483.25 680.375 483.25C688.142 483.25 694.438 488.287 694.438 494.5C694.438 500.713 688.142 505.75 680.375 505.75C672.608 505.75 666.312 500.713 666.312 494.5Z" fill="white"/>
<path d="M666.312 509.5C666.312 503.287 672.608 498.25 680.375 498.25C688.142 498.25 694.438 503.287 694.438 509.5C694.438 515.713 688.142 520.75 680.375 520.75C672.608 520.75 666.312 515.713 666.312 509.5Z" fill="white"/>
<path d="M685.062 509.5C685.062 503.287 691.358 498.25 699.125 498.25C706.892 498.25 713.188 503.287 713.188 509.5C713.188 515.713 706.892 520.75 699.125 520.75C691.358 520.75 685.062 515.713 685.062 509.5Z" fill="white"/>
<path d="M685.062 524.5C685.062 518.287 691.358 513.25 699.125 513.25C706.892 513.25 713.188 518.287 713.188 524.5C713.188 530.713 706.892 535.75 699.125 535.75C691.358 535.75 685.062 530.713 685.062 524.5Z" fill="white"/>
<path d="M685.062 539.5C685.062 533.287 691.358 528.25 699.125 528.25C706.892 528.25 713.188 533.287 713.188 539.5C713.188 545.713 706.892 550.75 699.125 550.75C691.358 550.75 685.062 545.713 685.062 539.5Z" fill="white"/>
<path d="M703.812 539.5C703.812 533.287 710.108 528.25 717.875 528.25C725.642 528.25 731.938 533.287 731.938 539.5C731.938 545.713 725.642 550.75 717.875 550.75C710.108 550.75 703.812 545.713 703.812 539.5Z" fill="white"/>
<path d="M703.812 554.5C703.812 548.287 710.108 543.25 717.875 543.25C725.642 543.25 731.938 548.287 731.938 554.5C731.938 560.713 725.642 565.75 717.875 565.75C710.108 565.75 703.812 560.713 703.812 554.5Z" fill="white"/>
<path d="M703.812 569.5C703.812 563.287 710.108 558.25 717.875 558.25C725.642 558.25 731.938 563.287 731.938 569.5C731.938 575.713 725.642 580.75 717.875 580.75C710.108 580.75 703.812 575.713 703.812 569.5Z" fill="white"/>
<path d="M703.812 584.5C703.812 578.287 710.108 573.25 717.875 573.25C725.642 573.25 731.938 578.287 731.938 584.5C731.938 590.713 725.642 595.75 717.875 595.75C710.108 595.75 703.812 590.713 703.812 584.5Z" fill="white"/>
<path d="M703.812 599.5C703.812 593.287 710.108 588.25 717.875 588.25C725.642 588.25 731.938 593.287 731.938 599.5C731.938 605.713 725.642 610.75 717.875 610.75C710.108 610.75 703.812 605.713 703.812 599.5Z" fill="white"/>
<path d="M703.812 614.5C703.812 608.287 710.108 603.25 717.875 603.25C725.642 603.25 731.938 608.287 731.938 614.5C731.938 620.713 725.642 625.75 717.875 625.75C710.108 625.75 703.812 620.713 703.812 614.5Z" fill="white"/>
<path d="M703.812 629.5C703.812 623.287 710.108 618.25 717.875 618.25C725.642 618.25 731.938 623.287 731.938 629.5C731.938 635.713 725.642 640.75 717.875 640.75C710.108 640.75 703.812 635.713 703.812 629.5Z" fill="white"/>
<path d="M703.812 644.5C703.812 638.287 710.108 633.25 717.875 633.25C725.642 633.25 731.938 638.287 731.938 644.5C731.938 650.713 725.642 655.75 717.875 655.75C710.108 655.75 703.812 650.713 703.812 644.5Z" fill="white"/>
<path d="M703.812 659.5C703.812 653.287 710.108 648.25 717.875 648.25C725.642 648.25 731.938 653.287 731.938 659.5C731.938 665.713 725.642 670.75 717.875 670.75C710.108 670.75 703.812 665.713 703.812 659.5Z" fill="white"/>
<path d="M703.812 674.5C703.812 668.287 710.108 663.25 717.875 663.25C725.642 663.25 731.938 668.287 731.938 674.5C731.938 680.713 725.642 685.75 717.875 685.75C710.108 685.75 703.812 680.713 703.812 674.5Z" fill="white"/>
</g>
<defs>
<clipPath id="clip0_39_1934">
<rect width="225" height="300" fill="white" transform="translate(788)"/>
</clipPath>
<clipPath id="clip1_39_1934">
<rect width="225" height="300" fill="white" transform="translate(0 11)"/>
</clipPath>
<clipPath id="clip2_39_1934">
<rect width="225" height="300" fill="white" transform="translate(271.125 11)"/>
</clipPath>
<clipPath id="clip3_39_1934">
<rect width="225" height="300" fill="white" transform="translate(521 11)"/>
</clipPath>
<clipPath id="clip4_39_1934">
<rect width="225" height="300" fill="white" transform="translate(0 434)"/>
</clipPath>
<clipPath id="clip5_39_1934">
<rect width="225" height="300" fill="white" transform="translate(271 438)"/>
</clipPath>
<clipPath id="clip6_39_1934">
<rect width="225" height="300" fill="white" transform="translate(784 434)"/>
</clipPath>
<clipPath id="clip7_39_1934">
<rect width="225" height="300" fill="white" transform="translate(521 442)"/>
</clipPath>
</defs>
</svg>
