<svg width="142" height="256" viewBox="0 0 142 256" fill="none" xmlns="http://www.w3.org/2000/svg">
<line y1="-5.625" x2="111.401" y2="-5.625" transform="matrix(0 -1 -1 0 80.2811 255.401)" stroke="white" stroke-width="11.25"/>
<line y1="-5.625" x2="111.401" y2="-5.625" transform="matrix(0 -1 -1 0 48.0311 255.401)" stroke="white" stroke-width="11.25"/>
<line y1="-5.625" x2="61.8892" y2="-5.625" transform="matrix(1 0 0 -1 39.3914 128.25)" stroke="white" stroke-width="11.25"/>
<line y1="-5.625" x2="60.1209" y2="-5.625" transform="matrix(0 1 1 0 90.7811 64.5)" stroke="white" stroke-width="11.25"/>
<line y1="-5.625" x2="60.1209" y2="-5.625" transform="matrix(0 1 1 0 60.7811 64.5)" stroke="white" stroke-width="11.25"/>
<line y1="-4.125" x2="60.1209" y2="-4.125" transform="matrix(-0.65503 0.755603 0.755603 0.65503 46.5311 64.5)" stroke="white" stroke-width="8.25"/>
<path d="M98.6502 60.75L138.031 106.178" stroke="white" stroke-width="8.25"/>
<line y1="-3.375" x2="40.67" y2="-3.375" transform="matrix(0 1 1 0 90.7811 11.25)" stroke="white" stroke-width="6.75"/>
<path d="M54.0311 11.25V51.92" stroke="white" stroke-width="6.75"/>
<line y1="-3.375" x2="58.3527" y2="-3.375" transform="matrix(1 0 0 -1 41.429 0.75)" stroke="white" stroke-width="6.75"/>
<line y1="-3.375" x2="47.7431" y2="-3.375" transform="matrix(1 0 0 -1 46.7831 54.2249)" stroke="white" stroke-width="6.75"/>
<line y1="-2.25" x2="3.53653" y2="-2.25" transform="matrix(-1 0 0 1 80.3807 27.7009)" stroke="white" stroke-width="4.5"/>
<line y1="-2.25" x2="3.53653" y2="-2.25" transform="matrix(-1 0 0 1 64.4652 27.7009)" stroke="white" stroke-width="4.5"/>
</svg>
