<svg width="83" height="117" viewBox="0 0 83 117" fill="none" xmlns="http://www.w3.org/2000/svg">
<line y1="-4.5" x2="53.3097" y2="-4.5" transform="matrix(-1 0 0 1 68.2813 94.5002)" stroke="white" stroke-width="9"/>
<line y1="-4.5" x2="53.3097" y2="-4.5" transform="matrix(-1 0 0 1 68.2813 43.5002)" stroke="white" stroke-width="9"/>
<line y1="-4.5" x2="40.5" y2="-4.5" transform="matrix(0 1 1 0 58.5313 43.5002)" stroke="white" stroke-width="9"/>
<line y1="-4.5" x2="40.5" y2="-4.5" transform="matrix(0 1 1 0 33.0313 43.5002)" stroke="white" stroke-width="9"/>
<line y1="-4.5" x2="22.2739" y2="-4.5" transform="matrix(-0.707107 0.707107 0.707107 0.707107 58.5313 101.25)" stroke="white" stroke-width="9"/>
<line y1="-4.5" x2="22.2739" y2="-4.5" transform="matrix(-0.707107 0.707107 0.707107 0.707107 33.0313 101.25)" stroke="white" stroke-width="9"/>
<line y1="-4.5" x2="22.2739" y2="-4.5" transform="matrix(-0.707107 0.707107 0.707107 0.707107 22.5313 52.5002)" stroke="white" stroke-width="9"/>
<line x1="63.2133" y1="49.3183" x2="78.9633" y2="65.0683" stroke="white" stroke-width="9"/>
<line y1="-2.625" x2="2.25" y2="-2.625" transform="matrix(0 1 1 0 49.5313 14.2502)" stroke="white" stroke-width="5.25"/>
<line y1="-2.625" x2="2.25" y2="-2.625" transform="matrix(0 1 1 0 39.7813 14.2502)" stroke="white" stroke-width="5.25"/>
<line y1="-2.25" x2="25.5" y2="-2.25" transform="matrix(0 1 1 0 58.5313 6.75024)" stroke="white" stroke-width="4.5"/>
<line y1="-2.25" x2="25.5" y2="-2.25" transform="matrix(0 1 1 0 29.2813 6.75024)" stroke="white" stroke-width="4.5"/>
<line y1="-2.25" x2="25.5" y2="-2.25" transform="matrix(1 0 0 -1 29.2813 0.000244141)" stroke="white" stroke-width="4.5"/>
</svg>
